<?xml version="1.0" encoding="utf-8"?>
<svg version="1.1" xmlns="http://www.w3.org/2000/svg" xmlns:xlink="http://www.w3.org/1999/xlink" x="0px" y="0px" viewBox="0 0 2000 2000" style="enable-background:new 0 0 2000 2000;" xml:space="preserve">
<path fill="#000000" d="M332.4,1997.2c-32.5-2.3-65-9.2-95.2-20.4c-65.9-24.2-122.4-66.4-164.6-122.7c-20.3-27.2-37.7-59.2-49.5-91.3
c-11.3-30.6-18.1-63-20.4-96.1c-0.3-4.9-0.5-235.3-0.5-733.2c0-778.6-0.1-730.3,2.1-745.5c4.4-30.1,16.3-60.8,33.6-87.2
c18.6-28.4,44.4-52.7,73.5-69.5c25.5-14.7,51.3-23.4,81.7-27.8l7.2-1l796-0.1c722.6-0.1,796.7-0.1,803.9,0.6
c43,4,84.5,21.3,118.8,49.7c7.6,6.3,21.9,20.6,28.1,28.1c29,35.2,46.3,77.2,49.9,121c0.7,8.3,0.7,1454.8,0,1464.9
c-2.2,33.1-9.1,65.4-20.4,96.1c-34.5,93.7-105.3,168.3-197,207.3c-36.2,15.4-73.9,24.5-113.2,27.1
C1658,1997.8,340.8,1997.8,332.4,1997.2L332.4,1997.2z M1571.4,1873.3c26.3-4,47.2-23.8,52.3-49.7c1.2-6.3,1.7-12.1,1-13
c-0.8-1-1248.3-1-1249.2,0c-1.1,1.3,0.5,14.8,2.6,21.4c3.9,12.2,10.4,19.8,25.2,29.1c7.2,4.5,21.2,11.2,26.1,12.4
c0.8,0.2,257,0.4,569.5,0.4C1491.6,1874,1567.5,1873.9,1571.4,1873.3L1571.4,1873.3z M313.6,1655.2c0.1-78.6,0-124.3-0.3-124.6
c-0.6-0.6-3.7,1.9-10.4,8c-25.7,23.6-43.5,55.1-50,88.6c-3,15.5-3.4,34.2-0.9,51.1c2.2,15,7.7,32.3,14.9,46.6
c7.6,15.1,16.4,27.3,28.3,39.3c7.1,7.1,17,15.5,18,15.2C313.3,1779.4,313.5,1740,313.6,1655.2L313.6,1655.2z M1692.1,1776.3
c5.3-4.2,18.7-17.6,22.8-22.8c7.7-9.7,15.6-22.9,20.9-34.8c25.8-58.9,13.1-127-32.5-173.9c-6.4-6.5-15-14.1-16.2-14.1
c-0.9,0-0.9,3.2-0.9,124.1c0,68.3,0.1,124.3,0.3,124.5C1687.2,1780,1688,1779.5,1692.1,1776.3L1692.1,1776.3z M1625,1432
c0.1-290.6,0.1-318.4-0.6-322.7c-3.8-23.8-21.8-41.9-46.2-46.8c-4-0.8-28.3-0.8-578.1-0.8c-539.3,0-574.2,0-578.1,0.8
c-11.3,2.2-21.1,7-29.2,14.7c-8.6,8.1-14.1,17.9-16.9,29.8l-1.1,4.6l-0.1,318.1c-0.1,207.7,0,318.5,0.3,319.3l0.5,1.2l624.7-0.1
l624.7-0.1L1625,1432z M874.7,1582.4c-98.6-98.6-125.7-126-129.3-130.6c-12.8-16.1-21.1-30.8-27.9-49.3l-2.4-6.5l-4.4-0.6
c-21.6-2.9-39.3-17.7-46-38.4c-2.2-7-2.7-11.4-2.4-23.4c0.3-11.2,0.9-18.4,2.7-29.1c0.5-3.3,0.9-6.3,0.7-6.6c-0.1-0.4-1.5-1.5-3-2.5
c-14.3-9.7-23.1-27.1-23.2-45.6c0-8,1.5-14.7,5.6-24.1c13.3-30.7,44.5-67.3,80.8-94.7c17.9-13.5,37.4-23.4,51.3-26
c6.1-1.2,16.1-0.7,22.4,0.9c12.4,3.3,23.5,10.7,30.7,20.6c3.2,4.4,2.9,4.3,8.5,3.2c12.5-2.4,36-3.7,44.4-2.6
c18.8,2.7,34.3,14.1,42.8,31.5c2.3,4.6,4.3,11.4,4.9,15.9c0.7,5.7,0.1,5,6.4,7.2c21.2,7.4,40.6,18.9,57.4,34.2
c2.5,2.3,4.8,4.1,5.1,4.1c0.3,0,2.6-1.9,5.1-4.2c16.5-15.2,37.6-27.7,58-34.3c2.2-0.7,4.2-1.5,4.6-1.9s0.9-2.7,1.3-5.4
c1.8-12.2,7.1-22.7,15.9-31.4c11.1-11,24.1-16.2,40.5-16.2c8.6,0,20.2,0.9,29.2,2.2c13.2,2,11.7,2.1,13.8-1.1
c7.5-11.3,21.9-20.6,36.1-23.1c5.1-0.9,14.3-0.8,19.1,0.2c21.8,4.7,51.4,23.6,78.9,50.5c22.4,21.9,37.8,42.1,48.6,63.8
c6.9,13.9,9.2,22.6,8.8,33.6c-0.4,10.4-3.3,18.9-9.5,28.4c-2.9,4.4-10.2,12-14,14.5c-2.9,1.9-2.8,1.7-1.5,9.6
c2.2,13.4,3.4,33.7,2.4,41.3c-1.1,8.4-3.5,15.2-7.7,22.1c-8.9,14.7-25.1,25.1-41.3,26.7c-2.4,0.2-3.5,0.5-3.8,1.1
c-0.2,0.4-1.4,3.4-2.6,6.7c-6,16.5-15.4,33.2-26.4,47c-6.1,7.6-18.8,20.5-133.7,135l-122.1,121.7L874.7,1582.4z M1108.4,1536
c73.6-73.9,109.4-110.1,111.8-113.1c14.3-18.4,22.7-38,26.5-61.5c1.1-7.1,1.4-24.1,0.5-32.1c-2.1-17.8-8.3-36-17.8-51.7
c-19.7-32.6-51.5-54.2-89.4-60.7c-7.4-1.3-24.7-1.7-33.5-0.9c-19.8,1.8-38.2,8.5-55.9,20.3c-10.6,7-15.9,11.6-33.9,29.5l-17.1,16.9
l-12.6-12.6c-20.9-21-27.2-26.5-39.4-34.6c-16.5-10.9-35.8-17.8-54.5-19.5c-8-0.7-25.7-0.4-32.3,0.7c-35.2,5.5-65.6,24.1-85.9,52.5
c-11.8,16.4-19.6,36.3-22.8,57.7c-1,7-1.2,25.3-0.2,32c3.4,24.4,12.6,46,27.6,64.9c2.7,3.4,37.8,38.9,111.8,112.9
c59.4,59.4,108.1,108,108.4,108S1048.8,1595.8,1108.4,1536L1108.4,1536z M722.6,1350.6c2.4-1.2,4.6-3.6,5.7-6.2c0.7-1.6,1-3.1,1-6.5
c0-13.1,2.5-28.3,6.9-41.8c12.2-38,38.7-69.1,73.9-86.7c19.4-9.7,36.9-14.3,58.9-15.4c10.7-0.5,12.5-1,15.2-3.6
c2.4-2.4,3.5-4.9,3.5-8.4c0-3.5-0.7-5.4-3-8c-3-3.3-4.6-3.8-12.8-3.8c-47.5,0-97,24.4-128.3,63.3c-23.5,29.1-37,66.3-37.3,102
c-0.1,8.1-0.1,8.2,1.2,10.4C710.7,1351.2,717.4,1353.3,722.6,1350.6L722.6,1350.6z M1287.3,1350.2c2.7-1.6,4.7-4.2,5.6-7.2
c0.7-2.3,0.7-3.6,0.2-11.9c-1.1-18.4-4.3-34.1-10.2-49.9c-19.2-51.1-61-89.8-112.9-104.7c-13.4-3.9-25.8-5.8-39.9-6.2
c-7.6-0.2-9.4-0.1-10.9,0.5c-6.7,2.8-9.5,10.5-6.1,16.7c2.6,4.8,5.1,5.9,14.4,6.3c23.3,1,41.8,5.9,62.2,16.3
c34.3,17.6,61,48.9,72.9,85.7c4.3,13.1,6.3,24.6,6.9,39.2c0.3,6.4,0.4,7.5,1.5,9.7C1273.9,1351,1281.5,1353.6,1287.3,1350.2
L1287.3,1350.2z M698.3,1261.2c3.7-1,8.9-7.3,14.7-17.7c7-12.6,15.1-23,27.1-35.1c12-12.1,21.5-19.4,42.8-33.1
c9.7-6.3,12.1-8.2,13.4-11c2.9-6.2-1.1-14.4-7.9-16.4c-4.3-1.3-7.4-0.3-18.1,5.9c-27.2,15.7-57.9,44.4-74.9,70.1
c-4.6,7-11.4,20.4-11.9,23.4C682.1,1256.3,689.9,1263.6,698.3,1261.2L698.3,1261.2z M1309.2,1260.5c5.9-2.8,8.1-9.4,5.4-16.4
c-1.6-4.2-7-14-11.5-20.7c-12.4-18.6-32.2-39.3-52-54.3c-11.3-8.6-29.4-19.6-34.2-20.9c-7.9-2.1-16,5.5-14.7,13.8
c0.7,4.5,1.6,5.3,19.7,17.5c9.2,6.2,18.7,12.8,21.1,14.7c18.1,14.5,30.9,29.1,42.2,48c10.6,17.7,12.6,19.7,19.5,19.3
C1306.2,1261.5,1308.2,1261,1309.2,1260.5z M188.9,1311.8c0.5-0.3,0.6-25.6,0.5-125l-0.1-124.7h-31.5h-31.5l-0.1,124.7
c-0.1,99.4,0,124.7,0.5,125c0.3,0.2,14.3,0.4,31.2,0.4S188.6,1312,188.9,1311.8L188.9,1311.8z M1791.1,1311.2
c28.1-3.3,56.4-21.6,70.5-45.7c5.1-8.8,9.2-19.9,11.1-30.6c1-5.5,1-6.4,1-48.1v-42.5l-1.3-6.1c-4.6-21.6-15.1-39.7-30.6-53.1
c-25.2-21.8-60.5-28.9-91.8-18.5c-15.1,5-28.8,14.2-39.2,26.2c-13.7,15.9-21.8,34.2-24,54.1c-0.3,2.8-0.5,18.4-0.5,40.5
c0,22.1,0.2,37.7,0.5,40.5c1.2,11,4.3,21.6,9.1,31.3c14.2,28.6,41.8,48.3,72.6,51.9C1776.9,1312.2,1782.5,1312.2,1791.1,1311.2
L1791.1,1311.2z M1772.3,1247.3c-8-2.1-15.7-8.2-19.4-15.3c-3.6-7-3.6-6.3-3.6-44.4c0-38,0-37.4,3.4-44.5c1.5-3.2,2.7-4.8,5.9-8
c3.4-3.4,4.7-4.4,8.4-6.2c4.3-2.1,9.8-3.6,13.2-3.6c3.7,0,9,1.4,13.4,3.6c7.9,3.9,13.7,11,15.9,19.6c0.9,3.5,0.9,5.2,0.9,38.4
c0,38.6,0.1,37.7-3.1,44.2C1801.2,1244,1786.1,1250.9,1772.3,1247.3L1772.3,1247.3z M313.7,1209.9c0.2-89.4,0.3-96.8,1.1-101.3
c2.6-15.5,6.9-28.9,13-40.6c1.9-3.6,2.2-5.1,1.2-5.1c-1.5,0-9.3,2-13.8,3.5c-18.2,6.1-34.9,18.3-47.1,34.6
c-8.2,10.9-13.8,23.8-16.7,38.3c-1,5-1,6.3-1.2,45.3c-0.2,42.7-0.1,45.2,2.1,54.8c5.8,26,23,48.6,46.7,61.3c5.5,2.9,12.7,6,13.7,5.9
C313.4,1306.3,313.5,1295.1,313.7,1209.9L313.7,1209.9z M228,1000.2c15.1-1.3,30.5-6.5,42.5-14.3c23.6-15.5,39.8-42.4,42.7-70.9
c0.4-3.5,0.5-17.3,0.3-43.7c-0.2-36.8-0.2-38.8-1.2-43.7c-4.9-25.5-19.6-47.7-41-62c-4.9-3.3-15.8-8.7-20.8-10.4
c-25.4-8.5-52.6-6-76.1,7c-25.8,14.3-41.7,36.3-47.3,65.4c-0.9,4.9-1,6.8-1.2,44.6c-0.1,26.1,0,41,0.3,44.1
c3.7,34.6,26.2,64.3,58.8,77.6c8.3,3.4,17.1,5.4,28.1,6.5C216.9,1000.7,222.7,1000.7,228,1000.2z M213.1,935.8
c-4.3-1.1-7.2-2.4-10.8-4.9c-4.1-2.9-6.9-6.3-9.4-11.2c-3.5-7-3.5-6.9-3.5-44.4c0-37.5,0-37.1,3.6-44.5c4-8.3,12.3-15,21.2-17
c13.3-3.1,26.6,3.9,32.9,17.1c3.1,6.4,3.1,6.9,2.9,46c-0.1,32.3-0.2,35.2-1,37.5c-1.6,5-4.1,9-8.1,13.2c-6.1,6.4-12.7,9.3-20.9,9.2
C218,936.7,214.9,936.3,213.1,935.8L213.1,935.8z M438.2,1000c0.7-0.7,0.7-11.1,0.7-107.5V785.8l-2.1-9.9
c-1.1-5.4-2.6-13.1-3.3-17.1s-1.5-7.5-1.7-7.8c-0.6-0.8-55.4-0.9-56.3,0c-0.4,0.4-0.6,28.7-0.6,124.4c0,112,0.1,123.9,0.7,124.6
c0.7,0.7,4.1,0.7,31.3,0.7S437.5,1000.6,438.2,1000z M1669.6,999.5c26.4-4.1,48.8-18.5,63.4-40.9c7.7-11.9,12.5-23.7,14.9-37.3
c1.1-5.9,1.1-6.2,1.1-46.3c0-44.9,0-44.2-3.3-56.2c-7.1-25.8-26-48.1-50.7-59.8c-24.4-11.5-52.4-11.7-77.5-0.5
c-17.2,7.6-33.3,21.4-42.5,36.4c-6.7,10.9-11.5,25.2-13,38.8c-0.6,5.7-0.6,78,0,83.6c1.2,10.6,3.9,19.9,8.8,29.9
c5.3,10.8,11.3,19,20,27.4c15,14.4,34.6,23.4,55.6,25.6C1651.9,1000.8,1663.9,1000.4,1669.6,999.5L1669.6,999.5z M1648.1,935.8
c-8.7-2.4-15.8-8.1-19.8-16.1c-3.3-6.6-3.2-5.6-3.1-46.2l0.1-36.4l1.3-3.4c1.8-4.8,3.9-8.2,7.4-11.7c3.6-3.6,6.9-5.7,11.7-7.4
c3.1-1.1,4-1.2,10-1.2c5.6,0,7,0.2,9.6,1.1c7.8,2.8,14.1,8.2,17.5,15.2c3.6,7.4,3.5,5.5,3.5,44.9c0,33.8,0,35.2-0.9,38.5
c-3.8,13.7-15.3,23.1-29.2,23.7C1652.5,936.7,1650.7,936.5,1648.1,935.8L1648.1,935.8z M833.7,999.9c0.4-0.6-0.2-1.1-5.3-5
c-12.6-9.4-22.7-18.3-34.1-30c-22.4-22.9-38.9-46.3-53.1-75.1c-12.8-26.1-21.1-52-25.6-80.1c-2-12.2-3.5-29.8-3.5-40v-4.3h287.2
h287.2v4.8c0,6.2-0.8,18.6-1.7,26.5c-5.6,50.2-25,98.7-55.9,139.9c-15.5,20.6-38.7,43.8-58.4,58.1c-3.2,2.4-5.4,4.3-5.4,4.8
c0,0.8,5.1,0.8,101.5,0.8h101.6l5.2-5.7c56.9-62.4,99.2-144,117.9-227.7c8.4-37.5,12.1-71.5,12.1-110.7c0-30-2-54.6-6.7-82.9
c-17.3-103.4-66.2-198.6-140.3-272.7c-15.9-15.9-36.9-34.3-53.5-46.9c-29.5-22.3-61.1-41.2-94.3-56.3
c-80.9-36.6-170.3-51.2-260.1-42.3c-91,9-177.9,42.8-250.1,97.1c-5.4,4.1-11.6,8.9-13.8,10.7s-5.9,4.9-8.2,6.8
c-18.6,15.3-40.7,36.9-57.5,56.1c-22.9,26.3-44,56.4-61.1,87.3c-5.8,10.5-17.1,33.8-21.8,44.8c-23,54.2-35.7,108.6-39.6,170.5
c-1.2,19.4-0.7,53.3,1.3,75c3.9,43.2,14,87.1,29.6,129.1c22.4,59.9,55.4,114.5,98,161.9l5.4,6H732
C787.8,1000.2,833.6,1000.1,833.7,999.9L833.7,999.9z M1092.9,998.3c7.7-3.1,12.9-5.7,12.9-6.3c0-0.9-6.9-8-12.8-13.1
c-21.6-18.6-46.1-29.7-75.2-34.1c-8.7-1.3-29.4-1.2-38.4,0.2c-31.7,5-59.4,19-81.4,41.4l-5.4,5.5l1,0.8c1,0.8,13.3,6.2,16,7
c0.7,0.2,41.1,0.4,89.9,0.4l88.7,0L1092.9,998.3z M1499.8,971.1c0.1-15.9,0-29.1-0.2-29.3s-0.6-0.2-0.8,0c-0.3,0.2-3.2,5-6.6,10.6
c-7,11.7-18.6,29.4-26,39.6c-2.8,3.8-4.9,7.2-4.8,7.6c0.2,0.5,3.5,0.6,19.3,0.5l19-0.1L1499.8,971.1L1499.8,971.1z M1873.7,875.1
V750.2l-31-0.1c-22.5-0.1-31.2,0-31.6,0.4c-0.5,0.4-0.6,20.5-0.6,124.8c0,68.4,0.1,124.5,0.3,124.6c0.2,0.2,14.4,0.3,31.6,0.2
l31.3-0.1V875.1z M1228.2,870.2c3.6-6.6,10.1-23.3,13.4-34.4c4-13.2,8.1-33.9,7-35.2c-0.8-1-497.9-1-498.7,0
c-0.4,0.5-0.3,2.1,0.4,6.2c3.7,22.6,9.6,42.4,18,59.9l3,6.2l227.8-0.1l227.8-0.1L1228.2,870.2z M189.3,563.1V437.7h-31.5h-31.5
l-0.1,124.9c-0.1,68.7,0,125.2,0.1,125.5c0.2,0.5,6.8,0.6,31.6,0.5l31.4-0.1V563.1z M313.5,563.1V437.7H282h-31.5l-0.1,124.9
c-0.1,68.7,0,125.2,0.1,125.5c0.2,0.5,6.8,0.6,31.6,0.5l31.4-0.1V563.1z M1748.7,688.2c0.9-0.9,0.8-249.4-0.1-250.2
c-0.5-0.4-9.1-0.5-31.4-0.4l-30.8,0.1l-0.1,124.9c-0.1,68.7,0,125.2,0.1,125.5C1686.8,689,1747.9,689,1748.7,688.2L1748.7,688.2z
M1873.7,563.1V437.7h-31.5h-31.5l-0.1,124.9c-0.1,68.7,0,125.2,0.1,125.5c0.2,0.5,6.8,0.6,31.6,0.5l31.4-0.1V563.1z M1579.8,674.7
c21.7-13.3,37.3-34.3,43-58.1c2.3-9.6,2.4-11.5,2.3-52c-0.1-43.4-0.2-46.2-3.6-57.9c-9.4-33.2-38.6-60.3-72.3-67.2
c-6.3-1.3-16.9-2.2-17.5-1.6c-0.3,0.3,0.1,2,1.4,5.3c8.1,20.2,15.7,43.2,21.2,63.7c1.2,4.4,2.9,9.5,3.7,11.4c2.1,4.7,3,8.4,3,12.5
c0,2,0.6,6.3,1.4,10.1c8.1,39.5,11.8,77.4,11.7,119c0,9.1,0,16.7,0,16.9C1574.2,677.6,1576.1,676.9,1579.8,674.7L1579.8,674.7z
M424.5,652.4c0.3-24.1,0.5-30,2.2-48.7c4.8-52.9,17.1-105.7,36.1-154.8c3.1-8,3.9-10.4,3.4-10.8c-0.4-0.4-1.9-0.4-5.7-0.1
c-36.7,3.1-68.5,28.1-80.7,63.3c-1.9,5.4-3.8,13.6-4.5,19.3c-0.7,5.2-0.6,74.2,0,82c2.5,29.5,17.7,54.2,43.6,71.2
c2,1.3,4,2.4,4.5,2.4C424.2,676.1,424.3,674.5,424.5,652.4L424.5,652.4z M233.9,375.1c23.3-3.5,42.8-14.6,57.4-32.7
c10-12.4,17.4-27.9,20.4-42.5c1.9-9.6,2.2-16.4,2-53.7c-0.2-29.8-0.3-35.2-1-39.5c-4.6-28.1-21.4-53.8-44.5-67.7
c-22.9-13.9-53.1-17.1-78.4-8.4c-9.9,3.4-18.5,8-26.6,14.1c-5.1,3.8-14.3,13.2-18.2,18.3c-8.8,11.9-14.8,25.5-17.8,40.2
c-1,5-1,6.2-1.2,44.6c-0.1,25.8,0,41.1,0.3,44.1c3.3,31.1,21.6,58.1,49.7,73.4c8.7,4.7,21.7,8.9,31.1,10c2.4,0.3,5.2,0.6,6.1,0.7
C216.5,376.4,229.1,375.9,233.9,375.1L233.9,375.1z M212.2,311.5c-9.9-2.9-18-10.7-21.3-20.8l-1.1-3.3l-0.1-34.6
c-0.1-30.1,0-35,0.6-38.3c2.4-12.3,12.1-22,24.2-24.3c4.6-0.9,6.9-0.9,11.4,0c10.8,2.2,20.4,11.6,23.2,22.8c1.1,4.2,1.1,72,0,76.2
c-2.6,10.3-11.8,19.8-21.7,22.4C223.8,312.6,215.7,312.5,212.2,311.5z M483.1,375.1c5.9-0.9,13.2-2.7,15.5-3.8
c1.4-0.7,2.6-2.5,7.5-10.6c16.1-26.7,33.6-51.2,53.4-74.9l4.1-4.9l-0.2-36.7c-0.2-39.2-0.1-37.8-2.6-47.5
c-9.7-38.1-40.6-65.4-79.6-70.5c-7-0.9-22.2-0.7-28.2,0.5c-30,5.6-55,24.5-68,51.4c-4.5,9.3-6.8,16.4-8.7,27.1c-1,5.3-1,7.3-1.2,42
c-0.1,23.5,0,38.6,0.3,42.4c1.9,22.5,11.3,42.9,27.4,58.9c15.4,15.4,35.5,25,57.1,27.3C465.2,376.4,476.9,376,483.1,375.1z
M466.1,312.3c-10.2-1.1-19.6-7.5-23.9-16.3c-3.5-7.1-3.3-5.3-3.3-45.3c0-40-0.1-38.3,3.4-45.3c5.5-11.1,18.3-17.9,30.8-16.3
c11.7,1.5,20.8,8.8,25.3,20.2l1.5,3.8l0.1,36.2c0.1,31.9,0,36.6-0.6,39.6c-2.5,11.4-12.2,20.9-23.7,23.2
C471.8,312.9,471.3,312.9,466.1,312.3L466.1,312.3z M1624.3,375.6c0.7-0.7,0.7-12.6,0.7-124.6c0-103.9-0.1-124-0.6-124.4
c-0.5-0.4-9.2-0.5-31.9-0.4l-31.2,0.1l-0.1,124.3c-0.1,112.5,0,124.4,0.6,125c0.7,0.7,4.1,0.7,31.3,0.7
C1620.2,376.3,1623.7,376.2,1624.3,375.6L1624.3,375.6z M1795.3,374.7c20.3-3.7,37.2-12.4,51.2-26.4c16-16,25.2-35.4,27.5-57.7
c0.7-7.1,0.3-76-0.5-81.8c-2.6-18.5-9.6-35.2-20.7-48.8c-14.1-17.3-34.7-29.2-57.5-33.2c-5.1-0.9-7.7-1.1-16.1-1.1
c-13.9,0-22.2,1.5-34.2,6.4c-11.3,4.5-20.1,10.3-29.1,19.3c-17.1,17-27.3,38.5-29.1,61.6c-0.6,7.9-0.6,67.4,0,75.3
c2,25.5,14.7,50.1,34.5,66.9c11.9,10.1,28.7,17.5,45,19.9C1772.6,376,1789.4,375.8,1795.3,374.7L1795.3,374.7z M1773.6,311.6
c-3.9-1.1-9.7-4-12.7-6.4c-5.2-4.2-9.3-11.1-10.9-17.9c-0.7-2.9-0.8-7.7-0.7-36.4c0-36.2,0-36.7,2.8-42.5c4-8.5,10.6-14.3,19.4-17.2
c5.4-1.8,12.4-1.7,17.8,0c7.6,2.5,14.4,8.3,17.9,15.3c3.4,6.8,3.3,6.1,3.2,46.1l-0.1,35.7l-1.3,3.4c-1.8,4.8-3.9,8.1-7.4,11.7
c-3.4,3.4-6.9,5.7-11.5,7.4C1786,312.3,1777.6,312.7,1773.6,311.6L1773.6,311.6z M1499.8,248.6l-0.1-122.3h-31.5h-31.5l-0.1,78.3
l-0.1,78.3l3.4,4.1c19.6,23.7,37.3,48.6,52.2,73.5c3.4,5.7,6.4,10.6,6.7,10.8c0.3,0.2,0.6,0.2,0.8,0
C1499.8,371.1,1499.9,315.9,1499.8,248.6L1499.8,248.6z M1374.8,216.7c0-6.6-2-17.3-4.7-25.5c-6.7-20.2-21.6-39.4-39.4-50.9
c-7.5-4.8-17.8-9.2-27.1-11.6c-14.8-3.8-32.3-3.6-46,0.3c-4.5,1.3-6.2,2-6.4,2.8c-0.1,0.3,2.2,2,5.1,3.7c14.3,8.6,29.2,18.7,42.9,29
c4.5,3.4,11.4,8.2,15.2,10.7c17.6,11.5,39.5,27.8,54.8,40.8C1374.1,220.3,1374.8,220.3,1374.8,216.7z M630.9,214.8
c15.3-12.8,36.2-28.4,53.4-39.6l4.2-2.8v-23.1v-23.1H657h-31.5l-0.1,45.5c-0.1,25,0,45.8,0.1,46.1
C625.8,218.9,626.5,218.6,630.9,214.8L630.9,214.8z M683.1,265.9c6.7,6.2,32.4,29.5,57.2,52c26.3,23.8,51.6,46.5,52.4,46.9
c0.6,0.3,22-5,72.1-17.7c39.2-9.9,71.4-18,71.5-17.9c0.1,0.1-12.8,30.5-28.8,67.5c-15.9,37-29,67.6-29,67.8c0,0.3,17.6,28.4,39,62.6
c21.5,34.2,38.9,62.2,38.7,62.4c-0.2,0.2-32.9-2.7-72.8-6.4c-39.9-3.7-72.9-6.6-73.3-6.5c-0.4,0.1-21.7,25.3-47.3,56
c-25.6,30.7-46.8,56.1-47.2,56.5s-0.7,0.6-0.9,0.5c-0.1-0.1-7.5-32-16.4-71c-8.9-38.9-16.3-71.2-16.6-71.7
c-0.3-0.8-14.3-6.5-68.4-28.2c-37.4-15-68.1-27.4-68.2-27.6c-0.1-0.2,28-17.1,62.4-37.7c34.5-20.5,63.1-37.6,63.6-38
c0.9-0.7,1.2-5,5.4-71.8C678.9,310.2,681.5,267.2,683.1,265.9z M1316.9,265.9c-6.7,6.2-32.4,29.5-57.2,52
c-26.3,23.8-51.6,46.5-52.4,46.9c-0.6,0.3-22-5-72.1-17.7c-39.2-9.9-71.4-18-71.5-17.9c-0.1,0.1,12.8,30.5,28.8,67.5
c15.9,37,29,67.6,29,67.8c0,0.3-17.6,28.4-39,62.6c-21.5,34.2-38.9,62.2-38.7,62.4c0.2,0.2,32.9-2.7,72.8-6.4
c39.9-3.7,72.9-6.6,73.3-6.5c0.4,0.1,21.7,25.3,47.3,56c25.6,30.7,46.8,56.1,47.2,56.5c0.4,0.4,0.7,0.6,0.9,0.5
c0.1-0.1,7.5-32,16.4-71c8.9-38.9,16.3-71.2,16.6-71.7c0.3-0.8,14.3-6.5,68.4-28.2c37.4-15,68.1-27.4,68.2-27.6
c0.1-0.2-28-17.1-62.4-37.7c-34.5-20.5-63.1-37.6-63.6-38c-0.9-0.7-1.2-5-5.4-71.8C1321.1,310.2,1318.5,267.2,1316.9,265.9z" />
</svg>
