<?xml version="1.0" encoding="utf-8"?>
<svg version="1.1" xmlns="http://www.w3.org/2000/svg" xmlns:xlink="http://www.w3.org/1999/xlink" x="0px" y="0px" viewBox="0 0 1026.3 1026.3" xml:space="preserve">
		<path d="M1026.3,843.4c0.2,24.5-4.8,48.7-14.5,71.2c-18.7,43.7-53.6,78.6-97.3,97.3c-22.5,9.7-46.7,14.7-71.2,14.5H183
			c-24.5,0.2-48.7-4.8-71.2-14.5c-43.7-18.7-78.5-53.6-97.3-97.3C4.8,892.1-0.2,867.8,0,843.4V112.5c-0.1-15,2.9-29.9,8.9-43.7
			C20.4,41.8,41.8,20.4,68.8,8.9c13.8-6,28.7-9,43.7-8.9h801.4c15-0.1,29.9,2.9,43.7,8.9c26.9,11.4,48.4,32.9,59.8,59.8
			c6,13.8,9,28.7,8.9,43.7V843.4z M64.3,144.1c-0.1,6.5,1.2,13,3.8,19c4.9,11.4,14,20.5,25.4,25.4c6,2.6,12.5,3.9,19,3.8
			c6.4,0,12.8-1.3,18.7-3.8c5.7-2.4,10.9-6,15.1-10.6c4.2-4.5,7.6-9.7,10-15.4c2.5-5.8,3.8-12.2,3.8-18.5v-31.6
			c0-6.4-1.3-12.7-3.8-18.5c-2.4-5.7-5.8-10.9-10-15.4c-4.3-4.5-9.4-8.1-15.2-10.5c-5.9-2.5-12.3-3.8-18.7-3.8
			c-6.5-0.1-13,1.2-19,3.8c-5.6,2.4-10.8,5.9-15.1,10.3C73.9,82.7,70.4,88,68,93.7c-2.5,5.9-3.8,12.3-3.8,18.8V144.1z M64.3,353
			h32.1V224.4H64.3V353z M64.3,465c-0.1,6.5,1.2,13,3.8,19c4.9,11.4,14,20.5,25.4,25.4c6,2.6,12.5,3.9,19,3.8
			c6.4,0,12.8-1.3,18.7-3.8c5.7-2.4,10.9-6,15.2-10.5c4.2-4.5,7.6-9.7,10-15.4c2.5-5.8,3.8-12.1,3.8-18.5v-32.2
			c0-6.4-1.3-12.7-3.8-18.5c-4.9-11.4-14-20.5-25.4-25.4c-11.8-5-25.2-5-37,0c-5.7,2.4-10.9,5.8-15.4,10c-4.5,4.3-8.1,9.4-10.5,15.2
			c-2.5,5.9-3.8,12.3-3.8,18.7L64.3,465z M64.3,673.3h32.1v-128H64.3V673.3z M112.5,160.2c-8.8,0-16-7.1-16.1-15.9c0,0,0-0.1,0-0.1
			v-31.7c0-8.8,7.1-16,15.9-16.1c0,0,0.1,0,0.1,0c4.2,0,8.2,1.8,10.9,4.9c3,2.9,4.7,7,4.7,11.2v31.7c0,4.2-1.7,8.2-4.7,11.1
			C120.6,158.4,116.6,160.2,112.5,160.2L112.5,160.2z M112.5,481c-8.8,0-16-7.1-16.1-15.9c0,0,0,0,0-0.1v-32.2
			c0.4-8.7,7.4-15.7,16.1-16.1c4.2,0,8.2,1.8,10.9,4.9c3,2.9,4.7,7,4.7,11.2V465c0,4.2-1.7,8.2-4.7,11.1
			C120.6,479.3,116.6,481,112.5,481L112.5,481z M160.2,224.4h-32.1V353h32.1V224.4z M168.7,545.7c-11.3,1.9-21.6,7.8-29,16.5
			c-7.6,8.6-11.7,19.7-11.6,31.2v32.1c-0.1,10,3,19.8,8.9,27.9c5.7,8,13.9,14,23.2,17.2v-93.3C160.3,566.3,163.2,555.4,168.7,545.7
			L168.7,545.7z M160.2,785.8c-9.8,7.7-17.8,17.4-23.4,28.5c-5.7,11-8.7,23.3-8.7,35.7c0,12.4,2.9,24.6,8.5,35.7
			c5.5,11.1,13.6,20.8,23.6,28.1V785.8z M834,898.3V577.4c0-4-0.8-7.9-2.2-11.6c-1.4-3.8-3.6-7.2-6.2-10.3c-2.7-3-5.8-5.5-9.4-7.4
			c-3.6-1.9-7.6-2.9-11.6-2.9H224.5c-8,0-14.2,1.8-18.7,5.3c-4.4,3.5-7.8,8.1-9.8,13.4c-2.1,5.6-3.4,11.6-3.6,17.6
			c-0.3,6.4-0.5,12.6-0.5,18.5c0,50,0.1,99.7,0.2,149c0.2,49.3,0.2,99,0.2,149L834,898.3z M192.3,144.1c-0.1,6.5,1.2,13,3.8,19
			c4.9,11.4,14,20.5,25.4,25.4c6,2.6,12.5,3.9,19,3.8c6.4,0,12.8-1.3,18.7-3.8c5.7-2.4,11-5.9,15.4-10.3c4.3-4.4,7.8-9.5,10.3-15.2
			c2.6-6,3.9-12.5,3.8-19v-31.7c0-6.4-1.3-12.8-3.8-18.8c-4.8-11.7-14-20.9-25.7-25.7c-5.9-2.5-12.3-3.8-18.7-3.8
			c-6.5-0.1-13,1.2-19,3.8c-5.6,2.4-10.8,5.9-15.1,10.3c-4.4,4.4-7.9,9.6-10.3,15.4c-2.5,5.9-3.8,12.3-3.8,18.8V144.1z M192.3,304.8
			c-0.1,12.9,5,25.2,14.3,34.1c4.5,4.3,9.7,7.8,15.4,10.3c11,4.6,23.3,5,34.6,1.1v-43.7c-0.7,3.9-2.6,7.4-5.4,10.3
			c-2.7,2.7-6.2,4-10.7,4c-8.8,0-16-7.1-16.1-15.9c0,0,0-0.1,0-0.1v-32.1c0-8.8,7.1-16,15.9-16.1c0,0,0.1,0,0.1,0
			c6.5,0,10.7,1.9,12.5,5.8c1.9,4.4,3.1,9.1,3.6,13.8c0.9-15.5,3.1-30.9,6.7-46c-7-3.7-14.8-5.7-22.8-5.8c-6.5-0.1-13,1.2-19,3.8
			c-5.7,2.4-10.8,5.9-15.2,10.3c-4.4,4.4-7.9,9.6-10.3,15.4c-2.5,5.9-3.8,12.3-3.8,18.7L192.3,304.8z M192.3,513.2h32.1V385.1h-32.1
			V513.2z M192.3,929.9c0,9.2,2.5,16.1,7.4,20.5s11.4,8.2,19.4,11.2c1,0.4,2.1,0.5,3.1,0.5h579.7c17.7,0.1,32.1-14.2,32.1-31.9
			c0-0.1,0-0.2,0-0.3H192.3z M240.5,160.2c-8.8,0-16-7.1-16.1-15.9c0,0,0-0.1,0-0.1v-31.7c-0.2-8.9,6.8-16.2,15.7-16.5
			c8.9-0.2,16.2,6.8,16.5,15.7c0,0.3,0,0.5,0,0.8v31.7c0,8.8-7.1,16-15.9,16.1C240.6,160.2,240.6,160.2,240.5,160.2L240.5,160.2z
			 M258.8,418.6c-1.4,4.6-2.2,9.4-2.2,14.3V465c0,20.8,13.3,39.3,33,46c-8-14.2-14.6-29.2-19.8-44.7
			C264.5,450.8,260.9,434.8,258.8,418.6L258.8,418.6z M697.5,513.2c8.6-12,15.9-24.9,21.9-38.4c5.3-12.3,9.3-25.1,12-38.1
			c2.7-13.2,4.4-26.5,5.1-39.9c0.7-13.7,1.1-28.3,1.1-43.7h-32.1v-64.3H577c-17.2,0.2-34.2-3.3-50-10
			c-30.7-13.1-55.1-37.5-68.1-68.3c-6.7-15.9-10.1-33-10-50.2c-17.2-0.2-34.2,3.3-50,10c-30.7,13.1-55,37.6-68,68.3
			c-6.7,15.9-10.1,33-10,50.2V353h-32.2c0,15.8,0.4,30.4,1.1,44c0.7,13.3,2.4,26.5,5.1,39.5c2.7,13,6.8,25.7,12,37.9
			c6,13.6,13.3,26.6,21.9,38.8h120.5c-0.3-1.2-0.5-2.4-0.5-3.6c0-8.4,6.8-15.1,15.2-15.2c3.1,0.1,6.2,1.1,8.7,2.9
			c2.8,1.9,5.8,4.1,8.9,6.5c3.2,2.4,6.5,4.6,10,6.5c3.6,1.9,7.5,2.9,11.6,2.9h19.6c4.1,0,8.2-1,11.8-2.9c3.6-1.9,7-4,10.3-6.5
			c3.1-2.4,6-4.5,8.7-6.5c2.3-1.8,5.1-2.8,8-2.9c4.1,0,8,1.5,11,4.1c3.3,2.5,5.2,6.4,5.1,10.5c-0.1,1.4-0.4,2.7-0.9,4L697.5,513.2z
			 M320.8,119.2c5.1-5.3,10.2-10.7,15.4-16.1c5.2-5.3,10.8-10.3,16.7-14.7V64.3h-32.1V119.2z M416.8,320.8
			c17.7-0.1,32.1,14.2,32.1,31.9c0,0.1,0,0.2,0,0.3v32.1c0.1,8.5-3.4,16.5-9.6,22.3c-12.4,12.4-32.5,12.5-44.9,0.1
			c0,0-0.1-0.1-0.1-0.1c-6.2-5.8-9.7-13.9-9.6-22.3V353c0-8.6,3.2-16.1,9.6-22.5C400.1,324.3,408.3,320.8,416.8,320.8z M512.8,448.9
			c-8.5,0.1-16.7-3.4-22.5-9.6c-6.4-6.4-9.6-13.9-9.6-22.5h64.3c0.1,17.7-14.2,32.1-31.9,32.1C512.9,448.9,512.9,448.9,512.8,448.9z
			 M609.6,320.8c8.5-0.1,16.6,3.4,22.3,9.6c6,5.9,9.4,14.1,9.3,22.6v32.1c-0.2,17.4-14.3,31.5-31.7,31.7c-8.5,0.1-16.6-3.3-22.5-9.4
			c-6.2-5.8-9.7-13.9-9.6-22.3V353c-0.1-17.7,14.2-32.1,31.9-32.1C609.4,320.9,609.5,320.9,609.6,320.8L609.6,320.8z M705.5,112.5
			c0-6.4-1.3-12.7-3.8-18.5c-2.5-5.7-5.9-10.9-10.3-15.4c-4.3-4.5-9.5-8.1-15.2-10.5c-5.8-2.5-12.1-3.8-18.5-3.8
			c-5.3-0.1-10.6,0.9-15.6,2.7c23.8,13.9,45.2,31.5,63.4,52.2L705.5,112.5z M737.7,164.2c4.8,9.5,9.2,18.9,13.4,28.1h18.7V64.3
			h-32.2L737.7,164.2z M737.7,509.1v4h32.1V395.4c-1.4,19.8-4.8,39.3-10,58.5C754.5,473,747,491.6,737.7,509.1L737.7,509.1z
			 M834.1,272.6c0-6.4-1.3-12.7-3.8-18.5c-5-11.6-14.3-20.8-25.9-25.9c-5.9-2.5-12.2-3.8-18.6-3.8c-7.9,0.1-15.7,2.1-22.8,5.8
			c1.5,7.4,2.7,14.8,3.8,22.1c1,7.3,1.9,14.7,2.5,22.1c0.4-4.5,1.8-8.8,4-12.7c2.1-3.4,6.2-5.1,12.5-5.1c8.8,0,16,7.1,16.1,15.9
			c0,0,0,0.1,0,0.1v32.1c0,8.8-7.1,16-15.9,16.1c0,0-0.1,0-0.1,0c-3.7,0-7.4-1-10.5-3.1c-3.1-2-5.1-5.3-5.6-8.9v41.5
			c5,1.8,10.3,2.8,15.7,2.7c6.4,0,12.8-1.3,18.7-3.8c5.8-2.4,11.1-5.9,15.7-10.3c9.2-8.9,14.4-21.3,14.3-34.1L834.1,272.6z
			 M801.9,192.3h32.1V64.3h-32.2L801.9,192.3z M897.9,432.8c0-6.4-1.3-12.7-3.8-18.5c-4.9-11.4-14-20.5-25.4-25.4
			c-11.8-5-25.2-5-37,0c-5.7,2.4-10.9,5.8-15.4,10c-4.5,4.3-8.1,9.4-10.5,15.2c-2.5,5.9-3.8,12.3-3.8,18.7V465
			c-0.1,6.5,1.2,13,3.8,19c4.9,11.4,14,20.5,25.4,25.4c12.1,5.1,25.6,5.1,37.7,0c5.7-2.4,10.9-6,15.2-10.5c4.2-4.5,7.6-9.7,10-15.4
			c2.5-5.8,3.8-12.1,3.8-18.5V432.8z M850.1,481c-8.8,0-16-7.1-16.1-15.9c0,0,0,0,0-0.1v-32.2c0-8.9,7.2-16.1,16.1-16.1
			c8.9,0,16,7.2,16.1,16.1V465C865.7,473.7,858.8,480.6,850.1,481z M962.1,112.4c0-6.4-1.3-12.8-3.8-18.8
			c-4.8-11.6-14-20.9-25.7-25.7c-5.9-2.5-12.3-3.8-18.7-3.8c-6.5-0.1-13,1.2-19,3.8c-5.6,2.4-10.7,6-14.9,10.5
			c-4.2,4.5-7.6,9.7-10,15.4c-2.5,5.8-3.8,12.1-3.8,18.5v31.7c0,6.4,1.3,12.7,3.8,18.5c2.4,5.7,5.8,10.9,10,15.4
			c4.2,4.5,9.3,8.1,15,10.5c6,2.6,12.5,3.9,19,3.8c6.4,0,12.8-1.3,18.7-3.8c5.7-2.4,11-5.9,15.4-10.3c4.3-4.4,7.8-9.5,10.3-15.2
			c2.6-6,3.9-12.5,3.8-19L962.1,112.4z M866.1,353h31.7V224.4h-31.7V353z M962.1,593.5c0-6.4-1.3-12.8-3.8-18.7
			c-4.8-11.6-14-20.9-25.7-25.7c-5.9-2.5-12.3-3.8-18.7-3.8c-6.5-0.1-13,1.2-19,3.8c-5.7,2.4-10.7,6-15,10.5
			c-4.2,4.5-7.6,9.7-10,15.4c-2.5,5.8-3.8,12.1-3.8,18.5v32.1c0,6.4,1.3,12.7,3.8,18.5c4.9,11.4,14,20.5,25.4,25.4
			c11.8,5,25.2,5,37,0c5.7-2.4,10.9-5.8,15.4-10c4.5-4.2,8.1-9.3,10.5-15c2.6-6,3.9-12.5,3.8-19L962.1,593.5z M866.1,913.9
			c10-7.3,18-17,23.4-28.1c5.5-11.1,8.3-23.3,8.3-35.7c0-12.4-2.9-24.6-8.5-35.7c-5.5-11.1-13.4-20.9-23.2-28.5V913.9z M913.9,96.4
			c8.8,0,16,7.1,16.1,15.9c0,0,0,0.1,0,0.1v31.7c0,8.8-7.1,16-15.9,16.1c0,0-0.1,0-0.1,0c-8.7-0.4-15.7-7.4-16.1-16.1v-31.7
			C898.2,103.7,905.2,96.8,913.9,96.4z M913.9,577.4c8.8,0,16,7.1,16.1,15.9c0,0,0,0.1,0,0.1v32.2c-0.3,8.9-7.8,15.8-16.6,15.5
			c-8.4-0.3-15.2-7.1-15.5-15.5v-32.1C898.2,584.8,905.2,577.8,913.9,577.4L913.9,577.4z M962.1,224.4h-32.1V353h32.1V224.4z
			 M962.1,385h-32.1v128.1h32.1V385z"/>
<circle fill="#ffffff" cx="515.2" cy="341.8" r="290.8"/>
			<path d="M512.8,40.9c26.6-0.1,53.1,3.5,78.7,10.5C749,95.1,841.4,258.2,797.7,415.7c-27.8,100.2-106,178.5-206.2,206.2
				c-76.9,21.2-159.2,10.5-228-29.9c-66.6-39-115.3-102.3-135.9-176.7c-14.1-51.5-14.1-105.9,0-157.4
				C255.3,157.6,333.7,79.2,434.1,51.4C459.7,44.3,486.2,40.8,512.8,40.9z M512.8,595.4c23.3,0.1,46.4-3,68.8-9.3
				c21.7-6,42.4-14.8,61.9-26.1c38.4-22.4,70.3-54.4,92.7-92.8c11.3-19.4,20.1-40.2,26.1-61.9c6.2-22.4,9.3-45.6,9.3-68.8
				c0-19.1-2.1-38.1-6.3-56.7c-8.3-36.9-24.5-71.5-47.6-101.3c-11.7-15.1-25-28.9-39.7-41l4.9,73.8l65.6,39.1l-70.7,28.3l-17,74.3
				l-48.9-58.6l-75.9,7l40.6-64.6l-30-69.9l74.1,18.8l56.1-49.4c-22.9-18.9-48.8-33.6-76.8-43.5c-56.3-19.9-117.8-19.9-174.1,0
				c-27.9,9.9-53.9,24.6-76.8,43.5l56.1,49.4l74.1-18.8l-30.1,70l40.6,64.6l-75.9-7l-48.9,58.6l-17-74.3l-70.7-28.3l65.7-39.1
				l4.6-73.8c-44.2,36.4-74.9,86.6-87.2,142.5c-4.1,18.6-6.2,37.6-6.2,56.6c-0.1,23.3,3,46.4,9.3,68.8c6,21.7,14.8,42.4,26.1,61.9
				c22.4,38.4,54.4,70.3,92.7,92.7c19.4,11.3,40.2,20.1,61.9,26.1C466.4,592.4,489.5,595.5,512.8,595.4z M512.8,540.1
				c-19.8,0.1-39.3-3.9-57.5-11.7c-35.4-15.1-63.6-43.3-78.7-78.7c-7.8-18.1-11.8-37.7-11.7-57.5h295.8c0.1,19.8-3.8,39.3-11.7,57.5
				c-15.1,35.4-43.3,63.6-78.7,78.7C552.1,536.3,532.6,540.3,512.8,540.1L512.8,540.1z M629.6,447.5c5.8-11.6,9.6-24,11.3-36.8
				H384.7c0.9,6.4,2.2,12.6,4,18.8c1.8,6.2,4.2,12.2,7.1,18H629.6z M512.8,521.6c9.4,0,18.8-1,28-3.1c9.2-2.1,18.2-5.2,26.8-9.3
				c-6.9-7.8-15.3-14-24.8-18.3c-19.1-8.6-40.9-8.6-59.9,0c-9.5,4.3-17.9,10.5-24.8,18.3c8.5,4.1,17.5,7.2,26.8,9.3
				C494,520.6,503.4,521.6,512.8,521.6L512.8,521.6z"/>
<path fill="#ffffff" d="M805.1,545.3h-584c-15.9,0-28.9,12.9-28.9,28.9v324.1H834V574.1C834,558.2,821.1,545.3,805.1,545.3z"/>
		<path d="M623.1,566.3c4.3,0,9.1,1.3,14.5,3.8c5.8,2.8,11.3,6.2,16.5,10.1c5.8,4.4,11.3,9.1,16.4,14.3c5.1,5.1,9.9,10.6,14.2,16.4
			c3.9,5.2,7.2,10.7,10,16.5c2.5,5.4,3.8,10.3,3.8,14.6c0,4.9-1.3,9.7-3.8,13.9c-2.4,4.3-5.8,7.9-9.9,10.5
			c1.4,7.1,2.1,14.4,2.1,21.6c0,3.7-0.7,7.4-2.1,10.9c-2.8,6.8-7.9,12.2-14.5,15.4c-3.4,1.6-7.1,2.6-10.8,2.7
			c-4.3,13.5-11.8,25.7-21.8,35.6L512.9,877.3L388.3,752.6c-10-10-17.5-22.2-21.8-35.6c-3.7-0.2-7.4-1.1-10.8-2.7
			c-6.6-3.2-11.8-8.6-14.5-15.4c-1.4-3.5-2.1-7.2-2.1-10.9c0-7.3,0.7-14.5,2.1-21.6c-4.3-2.6-7.9-6.3-10.2-10.7
			c-2.3-4.5-3.5-9.4-3.5-14.4c0-4.2,1.3-8.9,3.9-14.3c2.8-5.7,6.2-11.2,10.1-16.3c4.3-5.8,9.1-11.2,14.3-16.3
			c5.1-5.1,10.6-9.8,16.4-14.2c5.1-3.9,10.6-7.2,16.4-10c5.4-2.5,10.2-3.8,14.3-3.8c5,0,9.9,1.2,14.2,3.6c4.3,2.4,8,5.8,10.5,10.1
			c3.6-0.8,7.2-1.3,10.8-1.6c3.7-0.3,7.3-0.5,11-0.5c7.4,0,14.5,2.8,19.8,7.9c2.6,2.5,4.7,5.5,6.3,8.7c1.6,3.4,2.6,7.1,2.7,10.8
			c6.5,2,12.8,4.8,18.7,8.3c5.9,3.5,11.3,7.7,16.1,12.5c4.8-4.8,10.2-9,16.1-12.5c5.9-3.5,12.2-6.3,18.7-8.3
			c0.2-3.7,1.1-7.4,2.7-10.8c1.6-3.3,3.7-6.2,6.3-8.7c5.3-5.1,12.4-7.9,19.8-7.9c3.7,0,7.3,0.2,11,0.5c3.6,0.3,7.2,0.9,10.8,1.6
			c2.5-4.2,6.1-7.7,10.5-10.1C613.3,567.5,618.1,566.3,623.1,566.3z M356.5,647.4c1.1,0,2.1-0.3,3-1c0.8-0.7,1.5-1.4,2.2-2.3
			c1.3-1.8,2.5-3.7,3.5-5.6s2.2-3.7,3.4-5.6c2.3-3.4,4.9-6.7,7.7-9.8c2.5-2.7,5.1-5.3,7.9-7.7c2.8-2.4,5.7-4.6,8.7-6.7
			c3.1-2.1,6.3-4.3,9.8-6.5l2.9-1.9c0.9-0.6,1.7-1.3,2.3-2.2c0.5-0.9,0.8-1.9,0.7-3c-0.1-3.2-2.7-5.7-5.8-5.8
			c-0.9,0-1.8,0.2-2.6,0.6c-5,2.5-9.8,5.4-14.3,8.8c-4.9,3.6-9.6,7.6-14,11.9c-4.3,4.3-8.4,8.9-12.1,13.7c-3.4,4.4-6.3,9.3-8.5,14.4
			c-0.4,0.9-0.6,1.8-0.6,2.7C350.7,644.8,353.2,647.4,356.5,647.4C356.4,647.4,356.5,647.4,356.5,647.4L356.5,647.4z M368.1,693.7
			c1.5,0,2.9-0.6,4-1.8c1.1-1.1,1.7-2.5,1.7-4c-0.1-10.1,2-20.1,6-29.4c3.8-8.9,9.3-17.1,16.2-24c6.9-6.9,15-12.3,24-16.1
			c9.3-4,19.3-6,29.4-5.9c3.2,0,5.8-2.6,5.8-5.8c0-3.2-2.6-5.8-5.8-5.8c-11.6-0.1-23.2,2.3-33.9,6.9c-20.8,8.9-37.4,25.4-46.2,46.2
			c-4.6,10.7-6.9,22.2-6.9,33.9C362.3,691.1,364.8,693.7,368.1,693.7C368.1,693.7,368.1,693.7,368.1,693.7L368.1,693.7z
			 M512.9,844.5l108.2-108.4c12.3-12.3,19.2-28.9,19.2-46.3c0.1-8.8-1.7-17.4-5.2-25.5c-3.3-7.8-8.1-14.9-14-20.9
			c-6-6-13-10.8-20.8-14.1c-8-3.5-16.7-5.2-25.5-5.2c-6.9,0-13,0.8-18.3,2.4c-5.2,1.6-10.1,3.8-14.8,6.6c-4.6,2.8-8.9,6.1-12.8,9.8
			c-4,3.8-8.2,7.9-12.5,12.3l-3.5,3.7l-3.5-3.7c-4.3-4.4-8.5-8.5-12.5-12.3c-3.9-3.7-8.2-7-12.8-9.8c-4.6-2.8-9.6-5.1-14.8-6.6
			c-5.3-1.6-11.4-2.4-18.3-2.4c-8.8,0-17.5,1.7-25.6,5.2c-15.8,6.6-28.3,19.2-34.9,34.9c-6.8,16.2-6.9,34.4-0.2,50.6
			c3.3,7.9,8.1,15.2,14.2,21.2L512.9,844.5z M657.8,693.7c3.2,0,5.8-2.6,5.8-5.8c0,0,0,0,0,0c0.1-11.6-2.3-23.2-6.9-33.9
			c-8.9-20.8-25.4-37.4-46.2-46.2c-10.7-4.6-22.2-6.9-33.9-6.9c-3.2,0-5.8,2.6-5.8,5.8s2.6,5.8,5.8,5.8c10-0.1,20,2,29.2,6
			c18.1,7.7,32.4,22.1,40.2,40.2c4,9.2,6,19.1,6,29.2C652.1,691,654.7,693.6,657.8,693.7L657.8,693.7z M669.4,647.4
			c3.2,0,5.8-2.6,5.8-5.8c0,0,0,0,0,0c0-0.9-0.3-1.9-0.6-2.7c-2.3-5.1-5.2-10-8.6-14.4c-3.7-4.9-7.7-9.4-12-13.7
			c-4.4-4.3-9-8.3-14-11.9c-4.5-3.3-9.3-6.3-14.3-8.8c-0.8-0.4-1.7-0.7-2.6-0.6c-3.1,0.1-5.7,2.7-5.8,5.8c-0.1,1,0.2,2.1,0.7,3
			c0.6,0.9,1.4,1.6,2.3,2.2l2.9,1.9c3.4,2.3,6.7,4.4,9.8,6.5c3,2.1,5.9,4.3,8.7,6.7c2.8,2.4,5.4,5,7.9,7.7c2.8,3.1,5.3,6.4,7.7,9.8
			c1.2,1.8,2.3,3.7,3.4,5.6c1.1,1.9,2.3,3.7,3.5,5.6c0.6,0.8,1.4,1.6,2.2,2.3C667.3,647.1,668.3,647.4,669.4,647.4z"/>
<rect x="256.6" y="513.1" width="506.4" height="32.1"/>
</svg>
