<?xml version="1.0" encoding="utf-8"?>
<svg version="1.1" xmlns="http://www.w3.org/2000/svg" xmlns:xlink="http://www.w3.org/1999/xlink" x="0px" y="0px" viewBox="0 0 2000 2000" style="enable-background:new 0 0 2000 2000;" xml:space="preserve">
<path fill="#8BDA74" d="M466.2,438.1c0.5,0.4-0.3,2.8-3.4,10.8c-19,49.1-31.3,101.9-36.1,154.8c-1.7,18.7-1.9,24.6-2.2,48.7
c-0.2,22.1-0.3,23.7-1.1,23.8c-0.5,0-2.5-1.1-4.5-2.4c-25.9-17-41.1-41.7-43.6-71.2c-0.6-7.8-0.7-76.8,0-82
c0.7-5.7,2.6-13.9,4.5-19.3c12.2-35.2,44-60.2,80.7-63.3C464.3,437.7,465.8,437.7,466.2,438.1z"/>
<path fill="#8BDA74" d="M313.5,563.1v125.4l-31.4,0.1c-24.8,0.1-31.4,0-31.6-0.5c-0.1-0.3-0.2-56.8-0.1-125.5l0.1-124.9H282h31.5V563.1
z"/>
<path fill="#8BDA74" d="M189.3,563.1v125.4l-31.4,0.1c-24.8,0.1-31.4,0-31.6-0.5c-0.1-0.3-0.2-56.8-0.1-125.5l0.1-124.9h31.5h31.5
L189.3,563.1L189.3,563.1z"/>
<path fill="#8BDA74" d="M313.5,871.3c0.2,26.4,0.1,40.2-0.3,43.7c-2.9,28.5-19.1,55.4-42.7,70.9c-12,7.8-27.4,13-42.5,14.3
c-5.3,0.5-11.1,0.5-14.9,0.2c-11-1.1-19.8-3.1-28.1-6.5c-32.6-13.3-55.1-43-58.8-77.6c-0.3-3.1-0.4-18-0.3-44.1
c0.2-37.8,0.3-39.7,1.2-44.6c5.6-29.1,21.5-51.1,47.3-65.4c23.5-13,50.7-15.5,76.1-7c5,1.7,15.9,7.1,20.8,10.4
c21.4,14.3,36.1,36.5,41,62C313.3,832.5,313.3,834.5,313.5,871.3z M250,876.9c0.2-39.1,0.2-39.6-2.9-46
c-6.3-13.2-19.6-20.2-32.9-17.1c-8.9,2-17.2,8.7-21.2,17c-3.6,7.4-3.6,7-3.6,44.5s0,37.4,3.5,44.4c2.5,4.9,5.3,8.3,9.4,11.2
c3.6,2.5,6.5,3.8,10.8,4.9c1.8,0.5,4.9,0.9,6.9,1c8.2,0.1,14.8-2.8,20.9-9.2c4-4.2,6.5-8.2,8.1-13.2
C249.8,912.1,249.9,909.2,250,876.9z"/>
<path fill="#8BDA74" d="M189.4,1186.8c0.1,99.4,0,124.7-0.5,125c-0.3,0.2-14.1,0.4-31,0.4s-30.9-0.2-31.2-0.4
c-0.5-0.3-0.6-25.6-0.5-125l0.1-124.7h31.5h31.5L189.4,1186.8z"/>
<path fill="#8BDA74" d="M329,1062.9c1,0,0.7,1.5-1.2,5.1c-6.1,11.7-10.4,25.1-13,40.6c-0.8,4.5-0.9,11.9-1.1,101.3
c-0.2,85.2-0.3,96.4-1,96.7c-1,0.1-8.2-3-13.7-5.9c-23.7-12.7-40.9-35.3-46.7-61.3c-2.2-9.6-2.3-12.1-2.1-54.8
c0.2-39,0.2-40.3,1.2-45.3c2.9-14.5,8.5-27.4,16.7-38.3c12.2-16.3,28.9-28.5,47.1-34.6C319.7,1064.9,327.5,1062.9,329,1062.9z"/>
<path fill="#8BDA74" d="M438.9,785.8v106.7c0,96.4,0,106.8-0.7,107.5c-0.7,0.6-4.1,0.7-31.3,0.7c-27.2,0-30.6,0-31.3-0.7
c-0.6-0.7-0.7-12.6-0.7-124.6c0-95.7,0.2-124,0.6-124.4c0.9-0.9,55.7-0.8,56.3,0c0.2,0.3,1,3.8,1.7,7.8s2.2,11.7,3.3,17.1
L438.9,785.8z"/>
<path fill="#8BDA74" d="M1499.6,941.8c0.2,0.2,0.3,13.4,0.2,29.3l-0.1,28.9l-19,0.1c-15.8,0.1-19.1,0-19.3-0.5c-0.1-0.4,2-3.8,4.8-7.6
c7.4-10.2,19-27.9,26-39.6c3.4-5.6,6.3-10.4,6.6-10.6C1499,941.6,1499.4,941.6,1499.6,941.8z"/>
<path fill="#8BDA74" d="M1873.7,1144.3v42.5c0,41.7,0,42.6-1,48.1c-1.9,10.7-6,21.8-11.1,30.6c-14.1,24.1-42.4,42.4-70.5,45.7
c-8.6,1-14.2,1-22.6-0.1c-30.8-3.6-58.4-23.3-72.6-51.9c-4.8-9.7-7.9-20.3-9.1-31.3c-0.3-2.8-0.5-18.4-0.5-40.5s0.2-37.7,0.5-40.5
c2.2-19.9,10.3-38.2,24-54.1c10.4-12,24.1-21.2,39.2-26.2c31.3-10.4,66.6-3.3,91.8,18.5c15.5,13.4,26,31.5,30.6,53.1L1873.7,1144.3z
M1807.3,1231.1c3.2-6.5,3.1-5.6,3.1-44.2c0-33.2,0-34.9-0.9-38.4c-2.2-8.6-8-15.7-15.9-19.6c-4.4-2.2-9.7-3.6-13.4-3.6
c-3.4,0-8.9,1.5-13.2,3.6c-3.7,1.8-5,2.8-8.4,6.2c-3.2,3.2-4.4,4.8-5.9,8c-3.4,7.1-3.4,6.5-3.4,44.5c0,38.1,0,37.4,3.6,44.4
c3.7,7.1,11.4,13.2,19.4,15.3C1786.1,1250.9,1801.2,1244,1807.3,1231.1z"/>
<path fill="#8BDA74" d="M1749,875c0,40.1,0,40.4-1.1,46.3c-2.4,13.6-7.2,25.4-14.9,37.3c-14.6,22.4-37,36.8-63.4,40.9
c-5.7,0.9-17.7,1.3-23.2,0.7c-21-2.2-40.6-11.2-55.6-25.6c-8.7-8.4-14.7-16.6-20-27.4c-4.9-10-7.6-19.3-8.8-29.9
c-0.6-5.6-0.6-77.9,0-83.6c1.5-13.6,6.3-27.9,13-38.8c9.2-15,25.3-28.8,42.5-36.4c25.1-11.2,53.1-11,77.5,0.5
c24.7,11.7,43.6,34,50.7,59.8C1749,830.8,1749,830.1,1749,875z M1686.3,874.6c0-39.4,0.1-37.5-3.5-44.9c-3.4-7-9.7-12.4-17.5-15.2
c-2.6-0.9-4-1.1-9.6-1.1c-6,0-6.9,0.1-10,1.2c-4.8,1.7-8.1,3.8-11.7,7.4c-3.5,3.5-5.6,6.9-7.4,11.7l-1.3,3.4l-0.1,36.4
c-0.1,40.6-0.2,39.6,3.1,46.2c4,8,11.1,13.7,19.8,16.1c2.6,0.7,4.4,0.9,8.1,1c13.9-0.6,25.4-10,29.2-23.7
C1686.3,909.8,1686.3,908.4,1686.3,874.6z"/>
<path fill="#8BDA74" d="M1873.7,875.1V1000l-31.3,0.1c-17.2,0.1-31.4,0-31.6-0.2c-0.2-0.1-0.3-56.2-0.3-124.6
c0-104.3,0.1-124.4,0.6-124.8c0.4-0.4,9.1-0.5,31.6-0.4l31,0.1L1873.7,875.1L1873.7,875.1z"/>
<path fill="#8BDA74" d="M1625.1,564.6c0.1,40.5,0,42.4-2.3,52c-5.7,23.8-21.3,44.8-43,58.1c-3.7,2.2-5.6,2.9-5.7,2.1
c0-0.2,0-7.8,0-16.9c0.1-41.6-3.6-79.5-11.7-119c-0.8-3.8-1.4-8.1-1.4-10.1c0-4.1-0.9-7.8-3-12.5c-0.8-1.9-2.5-7-3.7-11.4
c-5.5-20.5-13.1-43.5-21.2-63.7c-1.3-3.3-1.7-5-1.4-5.3c0.6-0.6,11.2,0.3,17.5,1.6c33.7,6.9,62.9,34,72.3,67.2
C1624.9,518.4,1625,521.2,1625.1,564.6z"/>
<path fill="#8BDA74" d="M1748.6,438c0.9,0.8,1,249.3,0.1,250.2c-0.8,0.8-61.9,0.8-62.3-0.1c-0.1-0.3-0.2-56.8-0.1-125.5l0.1-124.9
l30.8-0.1C1739.5,437.5,1748.1,437.6,1748.6,438z"/>
<path fill="#8BDA74" d="M1873.7,563.1v125.4l-31.4,0.1c-24.8,0.1-31.4,0-31.6-0.5c-0.1-0.3-0.2-56.8-0.1-125.5l0.1-124.9h31.5h31.5
V563.1z"/>
<path fill="#8BDA74" d="M1873.5,208.8c0.8,5.8,1.2,74.7,0.5,81.8c-2.3,22.3-11.5,41.7-27.5,57.7c-14,14-30.9,22.7-51.2,26.4
c-5.9,1.1-22.7,1.3-29,0.4c-16.3-2.4-33.1-9.8-45-19.9c-19.8-16.8-32.5-41.4-34.5-66.9c-0.6-7.9-0.6-67.4,0-75.3
c1.8-23.1,12-44.6,29.1-61.6c9-9,17.8-14.8,29.1-19.3c12-4.9,20.3-6.4,34.2-6.4c8.4,0,11,0.2,16.1,1.1c22.8,4,43.4,15.9,57.5,33.2
C1863.9,173.6,1870.9,190.3,1873.5,208.8z M1810.4,252.6c0.1-40,0.2-39.3-3.2-46.1c-3.5-7-10.3-12.8-17.9-15.3
c-5.4-1.7-12.4-1.8-17.8,0c-8.8,2.9-15.4,8.7-19.4,17.2c-2.8,5.8-2.8,6.3-2.8,42.5c-0.1,28.7,0,33.5,0.7,36.4
c1.6,6.8,5.7,13.7,10.9,17.9c3,2.4,8.8,5.3,12.7,6.4c4,1.1,12.4,0.7,16.5-0.8c4.6-1.7,8.1-4,11.5-7.4c3.5-3.6,5.6-6.9,7.4-11.7
l1.3-3.4L1810.4,252.6z"/>
<path fill="#8BDA74" d="M1625,251c0,112,0,123.9-0.7,124.6c-0.6,0.6-4.1,0.7-31.2,0.7c-27.2,0-30.6,0-31.3-0.7
c-0.6-0.6-0.7-12.5-0.6-125l0.1-124.3l31.2-0.1c22.7-0.1,31.4,0,31.9,0.4S1625,147.1,1625,251z"/>
<path fill="#8BDA74" d="M1499.8,248.6c0.1,67.3,0,122.5-0.2,122.7c-0.2,0.2-0.5,0.2-0.8,0s-3.3-5.1-6.7-10.8
c-14.9-24.9-32.6-49.8-52.2-73.5l-3.4-4.1l0.1-78.3l0.1-78.3h31.5h31.5L1499.8,248.6z"/>
<path fill="#8BDA74" d="M1374.8,216.7c0,3.6-0.7,3.6-5.6-0.7c-15.3-13-37.2-29.3-54.8-40.8c-3.8-2.5-10.7-7.3-15.2-10.7
c-13.7-10.3-28.6-20.4-42.9-29c-2.9-1.7-5.2-3.4-5.1-3.7c0.2-0.8,1.9-1.5,6.4-2.8c13.7-3.9,31.2-4.1,46-0.3
c9.3,2.4,19.6,6.8,27.1,11.6c17.8,11.5,32.7,30.7,39.4,50.9C1372.8,199.4,1374.8,210.1,1374.8,216.7z"/>
<path fill="#8BDA74" d="M688.5,149.3v23.1l-4.2,2.8c-17.2,11.2-38.1,26.8-53.4,39.6c-4.4,3.8-5.1,4.1-5.4,3c-0.1-0.3-0.2-21.1-0.1-46.1
l0.1-45.5H657h31.5V149.3z"/>
<path fill="#8BDA74" d="M563.4,244.2l0.2,36.7l-4.1,4.9c-19.8,23.7-37.3,48.2-53.4,74.9c-4.9,8.1-6.1,9.9-7.5,10.6
c-2.3,1.1-9.6,2.9-15.5,3.8c-6.2,0.9-17.9,1.3-23.2,0.7c-21.6-2.3-41.7-11.9-57.1-27.3c-16.1-16-25.5-36.4-27.4-58.9
c-0.3-3.8-0.4-18.9-0.3-42.4c0.2-34.7,0.2-36.7,1.2-42c1.9-10.7,4.2-17.8,8.7-27.1c13-26.9,38-45.8,68-51.4c6-1.2,21.2-1.4,28.2-0.5
c39,5.1,69.9,32.4,79.6,70.5C563.3,206.4,563.2,205,563.4,244.2z M499.4,288.9c0.6-3,0.7-7.7,0.6-39.6l-0.1-36.2l-1.5-3.8
c-4.5-11.4-13.6-18.7-25.3-20.2c-12.5-1.6-25.3,5.2-30.8,16.3c-3.5,7-3.4,5.3-3.4,45.3s-0.2,38.2,3.3,45.3
c4.3,8.8,13.7,15.2,23.9,16.3c5.2,0.6,5.7,0.6,9.6-0.2C487.2,309.8,496.9,300.3,499.4,288.9z"/>
<path fill="#8BDA74" d="M313.7,246.2c0.2,37.3-0.1,44.1-2,53.7c-3,14.6-10.4,30.1-20.4,42.5c-14.6,18.1-34.1,29.2-57.4,32.7
c-4.8,0.8-17.4,1.3-20.7,0.9c-0.9-0.1-3.7-0.4-6.1-0.7c-9.4-1.1-22.4-5.3-31.1-10c-28.1-15.3-46.4-42.3-49.7-73.4
c-0.3-3-0.4-18.3-0.3-44.1c0.2-38.4,0.2-39.6,1.2-44.6c3-14.7,9-28.3,17.8-40.2c3.9-5.1,13.1-14.5,18.2-18.3
c8.1-6.1,16.7-10.7,26.6-14.1c25.3-8.7,55.5-5.5,78.4,8.4c23.1,13.9,39.9,39.6,44.5,67.7C313.4,211,313.5,216.4,313.7,246.2z
M249.1,289.2c1.1-4.2,1.1-72,0-76.2c-2.8-11.2-12.4-20.6-23.2-22.8c-4.5-0.9-6.8-0.9-11.4,0c-12.1,2.3-21.8,12-24.2,24.3
c-0.6,3.3-0.7,8.2-0.6,38.3l0.1,34.6l1.1,3.3c3.3,10.1,11.4,17.9,21.3,20.8c3.5,1,11.6,1.1,15.2,0.1
C237.3,309,246.5,299.5,249.1,289.2z"/>
<path fill="#8873E8" d="M1703.3,1544.8c45.6,46.9,58.3,115,32.5,173.9c-5.3,11.9-13.2,25.1-20.9,34.8c-4.1,5.2-17.5,18.6-22.8,22.8
c-4.1,3.2-4.9,3.7-5.6,3c-0.2-0.2-0.3-56.2-0.3-124.5c0-120.9,0-124.1,0.9-124.1C1688.3,1530.7,1696.9,1538.3,1703.3,1544.8z"/>
<path fill="#8873E8" d="M313.3,1530.6c0.3,0.3,0.4,46,0.3,124.6c-0.1,84.8-0.3,124.2-0.4,124.2c-1,0.3-10.9-8.1-18-15.2
c-11.9-12-20.7-24.2-28.3-39.3c-7.2-14.3-12.7-31.6-14.9-46.6c-2.5-16.9-2.1-35.6,0.9-51.1c6.5-33.5,24.3-65,50-88.6
C309.6,1532.5,312.7,1530,313.3,1530.6z"/>
<path fill="#E5E5E5" d="M1624.4,1109.3c0.7,4.3,0.7,32.1,0.6,322.7l-0.1,318l-624.7,0.1l-624.7,0.1l-0.5-1.2
c-0.3-0.8-0.4-111.6-0.3-319.3l0.1-318.1l1.1-4.6c2.8-11.9,8.3-21.7,16.9-29.8c8.1-7.7,17.9-12.5,29.2-14.7
c3.9-0.8,38.8-0.8,578.1-0.8c549.8,0,574.1,0,578.1,0.8C1602.6,1067.4,1620.6,1085.5,1624.4,1109.3z M1359.7,1252.7
c0.4-11-1.9-19.7-8.8-33.6c-10.8-21.7-26.2-41.9-48.6-63.8c-27.5-26.9-57.1-45.8-78.9-50.5c-4.8-1-14-1.1-19.1-0.2
c-14.2,2.5-28.6,11.8-36.1,23.1c-2.1,3.2-0.6,3.1-13.8,1.1c-9-1.3-20.6-2.2-29.2-2.2c-16.4,0-29.4,5.2-40.5,16.2
c-8.8,8.7-14.1,19.2-15.9,31.4c-0.4,2.7-0.9,5-1.3,5.4s-2.4,1.2-4.6,1.9c-20.4,6.6-41.5,19.1-58,34.3c-2.5,2.3-4.8,4.2-5.1,4.2
s-2.6-1.8-5.1-4.1c-16.8-15.3-36.2-26.8-57.4-34.2c-6.3-2.2-5.7-1.5-6.4-7.2c-0.6-4.5-2.6-11.3-4.9-15.9
c-8.5-17.4-24-28.8-42.8-31.5c-8.4-1.1-31.9,0.2-44.4,2.6c-5.6,1.1-5.3,1.2-8.5-3.2c-7.2-9.9-18.3-17.3-30.7-20.6
c-6.3-1.6-16.3-2.1-22.4-0.9c-13.9,2.6-33.4,12.5-51.3,26c-36.3,27.4-67.5,64-80.8,94.7c-4.1,9.4-5.6,16.1-5.6,24.1
c0.1,18.5,8.9,35.9,23.2,45.6c1.5,1,2.9,2.1,3,2.5c0.2,0.3-0.2,3.3-0.7,6.6c-1.8,10.7-2.4,17.9-2.7,29.1c-0.3,12,0.2,16.4,2.4,23.4
c6.7,20.7,24.4,35.5,46,38.4l4.4,0.6l2.4,6.5c6.8,18.5,15.1,33.2,27.9,49.3c3.6,4.6,30.7,32,129.3,130.6l124.8,124.4l122.1-121.7
c114.9-114.5,127.6-127.4,133.7-135c11-13.8,20.4-30.5,26.4-47c1.2-3.3,2.4-6.3,2.6-6.7c0.3-0.6,1.4-0.9,3.8-1.1
c16.2-1.6,32.4-12,41.3-26.7c4.2-6.9,6.6-13.7,7.7-22.1c1-7.6-0.2-27.9-2.4-41.3c-1.3-7.9-1.4-7.7,1.5-9.6
c3.8-2.5,11.1-10.1,14-14.5C1356.4,1271.6,1359.3,1263.1,1359.7,1252.7z"/>
<path fill="#5DD5FC" d="M1624.7,1810.6c0.7,0.9,0.2,6.7-1,13c-5.1,25.9-26,45.7-52.3,49.7c-3.9,0.6-79.8,0.7-572.5,0.6
c-312.5,0-568.7-0.2-569.5-0.4c-4.9-1.2-18.9-7.9-26.1-12.4c-14.8-9.3-21.3-16.9-25.2-29.1c-2.1-6.6-3.7-20.1-2.6-21.4
C376.4,1809.6,1623.9,1809.6,1624.7,1810.6z"/>
<path fill="#FAC82A" d="M1314.6,1244.1c2.7,7,0.5,13.6-5.4,16.4c-1,0.5-3,1-4.5,1c-6.9,0.4-8.9-1.6-19.5-19.3
c-11.3-18.9-24.1-33.5-42.2-48c-2.4-1.9-11.9-8.5-21.1-14.7c-18.1-12.2-19-13-19.7-17.5c-1.3-8.3,6.8-15.9,14.7-13.8
c4.8,1.3,22.9,12.3,34.2,20.9c19.8,15,39.6,35.7,52,54.3C1307.6,1230.1,1313,1239.9,1314.6,1244.1z"/>
<path fill="#FAC82A" d="M1293.1,1331.1c0.5,8.3,0.5,9.6-0.2,11.9c-0.9,3-2.9,5.6-5.6,7.2c-5.8,3.4-13.4,0.8-16.3-5.5
c-1.1-2.2-1.2-3.3-1.5-9.7c-0.6-14.6-2.6-26.1-6.9-39.2c-11.9-36.8-38.6-68.1-72.9-85.7c-20.4-10.4-38.9-15.3-62.2-16.3
c-9.3-0.4-11.8-1.5-14.4-6.3c-3.4-6.2-0.6-13.9,6.1-16.7c1.5-0.6,3.3-0.7,10.9-0.5c14.1,0.4,26.5,2.3,39.9,6.2
c51.9,14.9,93.7,53.6,112.9,104.7C1288.8,1297,1292,1312.7,1293.1,1331.1z"/>
<path fill="#FAC82A" d="M788.4,1147.9c6.8,2,10.8,10.2,7.9,16.4c-1.3,2.8-3.7,4.7-13.4,11c-21.3,13.7-30.8,21-42.8,33.1
s-20.1,22.5-27.1,35.1c-5.8,10.4-11,16.7-14.7,17.7c-8.4,2.4-16.2-4.9-14.8-13.9c0.5-3,7.3-16.4,11.9-23.4
c17-25.7,47.7-54.4,74.9-70.1C781,1147.6,784.1,1146.6,788.4,1147.9z"/>
<path fill="#FAC82A" d="M884.7,1174c2.3,2.6,3,4.5,3,8s-1.1,6-3.5,8.4c-2.7,2.6-4.5,3.1-15.2,3.6c-22,1.1-39.5,5.7-58.9,15.4
c-35.2,17.6-61.7,48.7-73.9,86.7c-4.4,13.5-6.9,28.7-6.9,41.8c0,3.4-0.3,4.9-1,6.5c-1.1,2.6-3.3,5-5.7,6.2
c-5.2,2.7-11.9,0.6-15.1-4.7c-1.3-2.2-1.3-2.3-1.2-10.4c0.3-35.7,13.8-72.9,37.3-102c31.3-38.9,80.8-63.3,128.3-63.3
C880.1,1170.2,881.7,1170.7,884.7,1174z"/>
<path fill="#FAC82A" d="M683.1,265.9c-1.6,1.3-4.2,44.3-6.6,77.7c-4.2,66.8-4.5,71.1-5.4,71.8c-0.5,0.4-29.1,17.5-63.6,38
c-34.3,20.6-62.4,37.4-62.4,37.7c0.1,0.2,30.8,12.6,68.2,27.6c54.1,21.7,68.1,27.4,68.4,28.2c0.3,0.5,7.7,32.8,16.6,71.7
c8.9,39,16.3,70.9,16.4,71c0.2,0.1,0.5-0.1,0.9-0.5s21.6-25.8,47.2-56.5c25.6-30.7,46.9-55.9,47.3-56c0.4-0.1,33.4,2.8,73.3,6.5
c39.9,3.7,72.6,6.6,72.8,6.4s-17.2-28.2-38.7-62.4c-21.4-34.2-39-62.3-39-62.6c0-0.2,13.1-30.8,29-67.8
c15.9-36.9,28.8-67.2,28.8-67.5c-0.1-0.1-32.3,8-71.5,17.9c-50.1,12.7-71.5,18-72.1,17.7c-0.8-0.4-26.1-23.1-52.4-46.9
C715.5,295.4,689.8,272.1,683.1,265.9z M1316.9,265.9c-6.7,6.2-32.4,29.5-57.2,52c-26.3,23.8-51.6,46.5-52.4,46.9
c-0.6,0.3-22-5-72.1-17.7c-39.2-9.9-71.4-18-71.5-17.9c0,0.3,12.9,30.6,28.8,67.5c15.9,37,29,67.6,29,67.8c0,0.3-17.6,28.4-39,62.6
c-21.5,34.2-38.9,62.2-38.7,62.4c0.2,0.2,32.9-2.7,72.8-6.4s72.9-6.6,73.3-6.5s21.7,25.3,47.3,56c25.6,30.7,46.8,56.1,47.2,56.5
c0.4,0.4,0.7,0.6,0.9,0.5c0.1-0.1,7.5-32,16.4-71c8.9-38.9,16.3-71.2,16.6-71.7c0.3-0.8,14.3-6.5,68.4-28.2
c37.4-15,68.1-27.4,68.2-27.6c0-0.3-28.1-17.1-62.4-37.7c-34.5-20.5-63.1-37.6-63.6-38c-0.9-0.7-1.2-5-5.4-71.8
C1321.1,310.2,1318.5,267.2,1316.9,265.9z M1302.9,253.7c16.6,12.6,37.6,31,53.5,46.9c74.1,74.1,123,169.3,140.3,272.7
c4.7,28.3,6.7,52.9,6.7,82.9c0,39.2-3.7,73.2-12.1,110.7c-18.7,83.7-61,165.3-117.9,227.7l-5.2,5.7h-101.6
c-96.4,0-101.5,0-101.5-0.8c0-0.5,2.2-2.4,5.4-4.8c19.7-14.3,42.9-37.5,58.4-58.1c30.9-41.2,50.3-89.7,55.9-139.9
c0.9-7.9,1.7-20.3,1.7-26.5v-4.8H999.3H712.1v4.3c0,10.2,1.5,27.8,3.5,40c4.5,28.1,12.8,54,25.6,80.1c14.2,28.8,30.7,52.2,53.1,75.1
c11.4,11.7,21.5,20.6,34.1,30c5.1,3.9,5.7,4.4,5.3,5c-0.1,0.2-45.9,0.3-101.7,0.5H630.7l-5.4-6c-42.6-47.4-75.6-102-98-161.9
c-15.6-42-25.7-85.9-29.6-129.1c-2-21.7-2.5-55.6-1.3-75c3.9-61.9,16.6-116.3,39.6-170.5c4.7-11,16-34.3,21.8-44.8
c17.1-30.9,38.2-61,61.1-87.3c16.8-19.2,38.9-40.8,57.5-56.1c2.3-1.9,6-5,8.2-6.8s8.4-6.6,13.8-10.7
c72.2-54.3,159.1-88.1,250.1-97.1c89.8-8.9,179.2,5.7,260.1,42.3C1241.8,212.5,1273.4,231.4,1302.9,253.7z"/>
<path fill="#DD2416" d="M1105.8,992c0,0.6-5.2,3.2-12.9,6.3l-4.7,1.8h-88.7c-48.8,0-89.2-0.2-89.9-0.4c-2.7-0.8-15-6.2-16-7l-1-0.8
l5.4-5.5c22-22.4,49.7-36.4,81.4-41.4c9-1.4,29.7-1.5,38.4-0.2c29.1,4.4,53.6,15.5,75.2,34.1C1098.9,984,1105.8,991.1,1105.8,992z"
/>
<path fill="#DD2416" d="M1247.2,1329.3c0.9,8,0.6,25-0.5,32.1c-3.8,23.5-12.2,43.1-26.5,61.5c-2.4,3-38.2,39.2-111.8,113.1
c-59.6,59.8-108.4,108.7-108.7,108.7s-49-48.6-108.4-108c-74-74-109.1-109.5-111.8-112.9c-15-18.9-24.2-40.5-27.6-64.9
c-1-6.7-0.8-25,0.2-32c3.2-21.4,11-41.3,22.8-57.7c20.3-28.4,50.7-47,85.9-52.5c6.6-1.1,24.3-1.4,32.3-0.7
c18.7,1.7,38,8.6,54.5,19.5c12.2,8.1,18.5,13.6,39.4,34.6l12.6,12.6l17.1-16.9c18-17.9,23.3-22.5,33.9-29.5
c17.7-11.8,36.1-18.5,55.9-20.3c8.8-0.8,26.1-0.4,33.5,0.9c37.9,6.5,69.7,28.1,89.4,60.7C1238.9,1293.3,1245.1,1311.5,1247.2,1329.3
z"/>
<g id="XMLID_1_">
<g>
<path fill="#ffffff" d="M1248.6,800.6c1.1,1.3-3,22-7,35.2c-3.3,11.1-9.8,27.8-13.4,34.4l-1.3,2.5l-227.8,0.1l-227.8,0.1l-3-6.2
c-8.4-17.5-14.3-37.3-18-59.9c-0.7-4.1-0.8-5.7-0.4-6.2C750.7,799.6,1247.8,799.6,1248.6,800.6z"/>
<path d="M1997,201.8c0.7,8.3,0.7,1454.8,0,1464.9c-2.2,33.1-9.1,65.4-20.4,96.1c-34.5,93.7-105.3,168.3-197,207.3
c-36.2,15.4-73.9,24.5-113.2,27.1c-8.4,0.6-1325.6,0.6-1334,0c-32.5-2.3-65-9.2-95.2-20.4c-65.9-24.2-122.4-66.4-164.6-122.7
c-20.3-27.2-37.7-59.2-49.5-91.3c-11.3-30.6-18.1-63-20.4-96.1c-0.3-4.9-0.5-235.3-0.5-733.2c0-778.6-0.1-730.3,2.1-745.5
c4.4-30.1,16.3-60.8,33.6-87.2c18.6-28.4,44.4-52.7,73.5-69.5c25.5-14.7,51.3-23.4,81.7-27.8l7.2-1l796-0.1
C1718.9,2.3,1793,2.3,1800.2,3c43,4,84.5,21.3,118.8,49.7c7.6,6.3,21.9,20.6,28.1,28.1C1976.1,116,1993.4,158,1997,201.8z
M1874,290.6c0.7-7.1,0.3-76-0.5-81.8c-2.6-18.5-9.6-35.2-20.7-48.8c-14.1-17.3-34.7-29.2-57.5-33.2c-5.1-0.9-7.7-1.1-16.1-1.1
c-13.9,0-22.2,1.5-34.2,6.4c-11.3,4.5-20.1,10.3-29.1,19.3c-17.1,17-27.3,38.5-29.1,61.6c-0.6,7.9-0.6,67.4,0,75.3
c2,25.5,14.7,50.1,34.5,66.9c11.9,10.1,28.7,17.5,45,19.9c6.3,0.9,23.1,0.7,29-0.4c20.3-3.7,37.2-12.4,51.2-26.4
C1862.5,332.3,1871.7,312.9,1874,290.6z M1873.7,1186.8v-42.5l-1.3-6.1c-4.6-21.6-15.1-39.7-30.6-53.1
c-25.2-21.8-60.5-28.9-91.8-18.5c-15.1,5-28.8,14.2-39.2,26.2c-13.7,15.9-21.8,34.2-24,54.1c-0.3,2.8-0.5,18.4-0.5,40.5
s0.2,37.7,0.5,40.5c1.2,11,4.3,21.6,9.1,31.3c14.2,28.6,41.8,48.3,72.6,51.9c8.4,1.1,14,1.1,22.6,0.1
c28.1-3.3,56.4-21.6,70.5-45.7c5.1-8.8,9.2-19.9,11.1-30.6C1873.7,1229.4,1873.7,1228.5,1873.7,1186.8z M1873.7,1000V875.1V750.2
l-31-0.1c-22.5-0.1-31.2,0-31.6,0.4c-0.5,0.4-0.6,20.5-0.6,124.8c0,68.4,0.1,124.5,0.3,124.6c0.2,0.2,14.4,0.3,31.6,0.2
L1873.7,1000z M1873.7,688.5V563.1V437.7h-31.5h-31.5l-0.1,124.9c-0.1,68.7,0,125.2,0.1,125.5c0.2,0.5,6.8,0.6,31.6,0.5
L1873.7,688.5z M1748.7,688.2c0.9-0.9,0.8-249.4-0.1-250.2c-0.5-0.4-9.1-0.5-31.4-0.4l-30.8,0.1l-0.1,124.9
c-0.1,68.7,0,125.2,0.1,125.5C1686.8,689,1747.9,689,1748.7,688.2z M1747.9,921.3c1.1-5.9,1.1-6.2,1.1-46.3
c0-44.9,0-44.2-3.3-56.2c-7.1-25.8-26-48.1-50.7-59.8c-24.4-11.5-52.4-11.7-77.5-0.5c-17.2,7.6-33.3,21.4-42.5,36.4
c-6.7,10.9-11.5,25.2-13,38.8c-0.6,5.7-0.6,78,0,83.6c1.2,10.6,3.9,19.9,8.8,29.9c5.3,10.8,11.3,19,20,27.4
c15,14.4,34.6,23.4,55.6,25.6c5.5,0.6,17.5,0.2,23.2-0.7c26.4-4.1,48.8-18.5,63.4-40.9C1740.7,946.7,1745.5,934.9,1747.9,921.3z
M1735.8,1718.7c25.8-58.9,13.1-127-32.5-173.9c-6.4-6.5-15-14.1-16.2-14.1c-0.9,0-0.9,3.2-0.9,124.1c0,68.3,0.1,124.3,0.3,124.5
c0.7,0.7,1.5,0.2,5.6-3c5.3-4.2,18.7-17.6,22.8-22.8C1722.6,1743.8,1730.5,1730.6,1735.8,1718.7z M1622.8,616.6
c2.3-9.6,2.4-11.5,2.3-52c-0.1-43.4-0.2-46.2-3.6-57.9c-9.4-33.2-38.6-60.3-72.3-67.2c-6.3-1.3-16.9-2.2-17.5-1.6
c-0.3,0.3,0.1,2,1.4,5.3c8.1,20.2,15.7,43.2,21.2,63.7c1.2,4.4,2.9,9.5,3.7,11.4c2.1,4.7,3,8.4,3,12.5c0,2,0.6,6.3,1.4,10.1
c8.1,39.5,11.8,77.4,11.7,119c0,9.1,0,16.7,0,16.9c0.1,0.8,2,0.1,5.7-2.1C1601.5,661.4,1617.1,640.4,1622.8,616.6z M1625,1432
c0.1-290.6,0.1-318.4-0.6-322.7c-3.8-23.8-21.8-41.9-46.2-46.8c-4-0.8-28.3-0.8-578.1-0.8c-539.3,0-574.2,0-578.1,0.8
c-11.3,2.2-21.1,7-29.2,14.7c-8.6,8.1-14.1,17.9-16.9,29.8l-1.1,4.6l-0.1,318.1c-0.1,207.7,0,318.5,0.3,319.3l0.5,1.2l624.7-0.1
l624.7-0.1L1625,1432z M1624.3,375.6c0.7-0.7,0.7-12.6,0.7-124.6c0-103.9-0.1-124-0.6-124.4s-9.2-0.5-31.9-0.4l-31.2,0.1
l-0.1,124.3c-0.1,112.5,0,124.4,0.6,125c0.7,0.7,4.1,0.7,31.3,0.7C1620.2,376.3,1623.7,376.2,1624.3,375.6z M1623.7,1823.6
c1.2-6.3,1.7-12.1,1-13c-0.8-1-1248.3-1-1249.2,0c-1.1,1.3,0.5,14.8,2.6,21.4c3.9,12.2,10.4,19.8,25.2,29.1
c7.2,4.5,21.2,11.2,26.1,12.4c0.8,0.2,257,0.4,569.5,0.4c492.7,0.1,568.6,0,572.5-0.6C1597.7,1869.3,1618.6,1849.5,1623.7,1823.6z
M1503.4,656.2c0-30-2-54.6-6.7-82.9c-17.3-103.4-66.2-198.6-140.3-272.7c-15.9-15.9-36.9-34.3-53.5-46.9
c-29.5-22.3-61.1-41.2-94.3-56.3c-80.9-36.6-170.3-51.2-260.1-42.3c-91,9-177.9,42.8-250.1,97.1c-5.4,4.1-11.6,8.9-13.8,10.7
c-2.2,1.8-5.9,4.9-8.2,6.8c-18.6,15.3-40.7,36.9-57.5,56.1c-22.9,26.3-44,56.4-61.1,87.3c-5.8,10.5-17.1,33.8-21.8,44.8
c-23,54.2-35.7,108.6-39.6,170.5c-1.2,19.4-0.7,53.3,1.3,75c3.9,43.2,14,87.1,29.6,129.1c22.4,59.9,55.4,114.5,98,161.9l5.4,6H732
c55.8-0.2,101.6-0.3,101.7-0.5c0.4-0.6-0.2-1.1-5.3-5c-12.6-9.4-22.7-18.3-34.1-30c-22.4-22.9-38.9-46.3-53.1-75.1
c-12.8-26.1-21.1-52-25.6-80.1c-2-12.2-3.5-29.8-3.5-40v-4.3h287.2h287.2v4.8c0,6.2-0.8,18.6-1.7,26.5
c-5.6,50.2-25,98.7-55.9,139.9c-15.5,20.6-38.7,43.8-58.4,58.1c-3.2,2.4-5.4,4.3-5.4,4.8c0,0.8,5.1,0.8,101.5,0.8h101.6l5.2-5.7
c56.9-62.4,99.2-144,117.9-227.7C1499.7,729.4,1503.4,695.4,1503.4,656.2z M1499.6,371.3c0.2-0.2,0.3-55.4,0.2-122.7l-0.1-122.3
h-31.5h-31.5l-0.1,78.3l-0.1,78.3l3.4,4.1c19.6,23.7,37.3,48.6,52.2,73.5c3.4,5.7,6.4,10.6,6.7,10.8
C1499.1,371.5,1499.4,371.5,1499.6,371.3z M1499.8,971.1c0.1-15.9,0-29.1-0.2-29.3c-0.2-0.2-0.6-0.2-0.8,0
c-0.3,0.2-3.2,5-6.6,10.6c-7,11.7-18.6,29.4-26,39.6c-2.8,3.8-4.9,7.2-4.8,7.6c0.2,0.5,3.5,0.6,19.3,0.5l19-0.1L1499.8,971.1z
M1369.2,216c4.9,4.3,5.6,4.3,5.6,0.7c0-6.6-2-17.3-4.7-25.5c-6.7-20.2-21.6-39.4-39.4-50.9c-7.5-4.8-17.8-9.2-27.1-11.6
c-14.8-3.8-32.3-3.6-46,0.3c-4.5,1.3-6.2,2-6.4,2.8c-0.1,0.3,2.2,2,5.1,3.7c14.3,8.6,29.2,18.7,42.9,29
c4.5,3.4,11.4,8.2,15.2,10.7C1332,186.7,1353.9,203,1369.2,216z M1241.6,835.8c4-13.2,8.1-33.9,7-35.2c-0.8-1-497.9-1-498.7,0
c-0.4,0.5-0.3,2.1,0.4,6.2c3.7,22.6,9.6,42.4,18,59.9l3,6.2l227.8-0.1l227.8-0.1l1.3-2.5C1231.8,863.6,1238.3,846.9,1241.6,835.8z
M1092.9,998.3c7.7-3.1,12.9-5.7,12.9-6.3c0-0.9-6.9-8-12.8-13.1c-21.6-18.6-46.1-29.7-75.2-34.1c-8.7-1.3-29.4-1.2-38.4,0.2
c-31.7,5-59.4,19-81.4,41.4l-5.4,5.5l1,0.8c1,0.8,13.3,6.2,16,7c0.7,0.2,41.1,0.4,89.9,0.4h88.7L1092.9,998.3z M688.5,172.4v-23.1
v-23.1H657h-31.5l-0.1,45.5c-0.1,25,0,45.8,0.1,46.1c0.3,1.1,1,0.8,5.4-3c15.3-12.8,36.2-28.4,53.4-39.6L688.5,172.4z
M563.6,280.9l-0.2-36.7c-0.2-39.2-0.1-37.8-2.6-47.5c-9.7-38.1-40.6-65.4-79.6-70.5c-7-0.9-22.2-0.7-28.2,0.5
c-30,5.6-55,24.5-68,51.4c-4.5,9.3-6.8,16.4-8.7,27.1c-1,5.3-1,7.3-1.2,42c-0.1,23.5,0,38.6,0.3,42.4
c1.9,22.5,11.3,42.9,27.4,58.9c15.4,15.4,35.5,25,57.1,27.3c5.3,0.6,17,0.2,23.2-0.7c5.9-0.9,13.2-2.7,15.5-3.8
c1.4-0.7,2.6-2.5,7.5-10.6c16.1-26.7,33.6-51.2,53.4-74.9L563.6,280.9z M462.8,448.9c3.1-8,3.9-10.4,3.4-10.8
c-0.4-0.4-1.9-0.4-5.7-0.1c-36.7,3.1-68.5,28.1-80.7,63.3c-1.9,5.4-3.8,13.6-4.5,19.3c-0.7,5.2-0.6,74.2,0,82
c2.5,29.5,17.7,54.2,43.6,71.2c2,1.3,4,2.4,4.5,2.4c0.8-0.1,0.9-1.7,1.1-23.8c0.3-24.1,0.5-30,2.2-48.7
C431.5,550.8,443.8,498,462.8,448.9z M438.9,892.5V785.8l-2.1-9.9c-1.1-5.4-2.6-13.1-3.3-17.1s-1.5-7.5-1.7-7.8
c-0.6-0.8-55.4-0.9-56.3,0c-0.4,0.4-0.6,28.7-0.6,124.4c0,112,0.1,123.9,0.7,124.6c0.7,0.7,4.1,0.7,31.3,0.7
c27.2,0,30.6-0.1,31.3-0.7C438.9,999.3,438.9,988.9,438.9,892.5z M327.8,1068c1.9-3.6,2.2-5.1,1.2-5.1c-1.5,0-9.3,2-13.8,3.5
c-18.2,6.1-34.9,18.3-47.1,34.6c-8.2,10.9-13.8,23.8-16.7,38.3c-1,5-1,6.3-1.2,45.3c-0.2,42.7-0.1,45.2,2.1,54.8
c5.8,26,23,48.6,46.7,61.3c5.5,2.9,12.7,6,13.7,5.9c0.7-0.3,0.8-11.5,1-96.7c0.2-89.4,0.3-96.8,1.1-101.3
C317.4,1093.1,321.7,1079.7,327.8,1068z M311.7,299.9c1.9-9.6,2.2-16.4,2-53.7c-0.2-29.8-0.3-35.2-1-39.5
c-4.6-28.1-21.4-53.8-44.5-67.7c-22.9-13.9-53.1-17.1-78.4-8.4c-9.9,3.4-18.5,8-26.6,14.1c-5.1,3.8-14.3,13.2-18.2,18.3
c-8.8,11.9-14.8,25.5-17.8,40.2c-1,5-1,6.2-1.2,44.6c-0.1,25.8,0,41.1,0.3,44.1c3.3,31.1,21.6,58.1,49.7,73.4
c8.7,4.7,21.7,8.9,31.1,10c2.4,0.3,5.2,0.6,6.1,0.7c3.3,0.4,15.9-0.1,20.7-0.9c23.3-3.5,42.8-14.6,57.4-32.7
C301.3,330,308.7,314.5,311.7,299.9z M313.6,1655.2c0.1-78.6,0-124.3-0.3-124.6c-0.6-0.6-3.7,1.9-10.4,8
c-25.7,23.6-43.5,55.1-50,88.6c-3,15.5-3.4,34.2-0.9,51.1c2.2,15,7.7,32.3,14.9,46.6c7.6,15.1,16.4,27.3,28.3,39.3
c7.1,7.1,17,15.5,18,15.2C313.3,1779.4,313.5,1740,313.6,1655.2z M313.2,915c0.4-3.5,0.5-17.3,0.3-43.7
c-0.2-36.8-0.2-38.8-1.2-43.7c-4.9-25.5-19.6-47.7-41-62c-4.9-3.3-15.8-8.7-20.8-10.4c-25.4-8.5-52.6-6-76.1,7
c-25.8,14.3-41.7,36.3-47.3,65.4c-0.9,4.9-1,6.8-1.2,44.6c-0.1,26.1,0,41,0.3,44.1c3.7,34.6,26.2,64.3,58.8,77.6
c8.3,3.4,17.1,5.4,28.1,6.5c3.8,0.3,9.6,0.3,14.9-0.2c15.1-1.3,30.5-6.5,42.5-14.3C294.1,970.4,310.3,943.5,313.2,915z
M313.5,688.5V563.1V437.7H282h-31.5l-0.1,124.9c-0.1,68.7,0,125.2,0.1,125.5c0.2,0.5,6.8,0.6,31.6,0.5L313.5,688.5z
M188.9,1311.8c0.5-0.3,0.6-25.6,0.5-125l-0.1-124.7h-31.5h-31.5l-0.1,124.7c-0.1,99.4,0,124.7,0.5,125c0.3,0.2,14.3,0.4,31.2,0.4
S188.6,1312,188.9,1311.8z M189.3,688.5V563.1V437.7h-31.5h-31.5l-0.1,124.9c-0.1,68.7,0,125.2,0.1,125.5
c0.2,0.5,6.8,0.6,31.6,0.5L189.3,688.5z"/>
</g>
<g>
</g>
</g>
<path d="M1807.2,206.5c3.4,6.8,3.3,6.1,3.2,46.1l-0.1,35.7l-1.3,3.4c-1.8,4.8-3.9,8.1-7.4,11.7c-3.4,3.4-6.9,5.7-11.5,7.4
c-4.1,1.5-12.5,1.9-16.5,0.8c-3.9-1.1-9.7-4-12.7-6.4c-5.2-4.2-9.3-11.1-10.9-17.9c-0.7-2.9-0.8-7.7-0.7-36.4
c0-36.2,0-36.7,2.8-42.5c4-8.5,10.6-14.3,19.4-17.2c5.4-1.8,12.4-1.7,17.8,0C1796.9,193.7,1803.7,199.5,1807.2,206.5z"/>
<path d="M1810.4,1186.9c0,38.6,0.1,37.7-3.1,44.2c-6.1,12.9-21.2,19.8-35,16.2c-8-2.1-15.7-8.2-19.4-15.3c-3.6-7-3.6-6.3-3.6-44.4
c0-38,0-37.4,3.4-44.5c1.5-3.2,2.7-4.8,5.9-8c3.4-3.4,4.7-4.4,8.4-6.2c4.3-2.1,9.8-3.6,13.2-3.6c3.7,0,9,1.4,13.4,3.6
c7.9,3.9,13.7,11,15.9,19.6C1810.4,1152,1810.4,1153.7,1810.4,1186.9z"/>
<path d="M1682.8,829.7c3.6,7.4,3.5,5.5,3.5,44.9c0,33.8,0,35.2-0.9,38.5c-3.8,13.7-15.3,23.1-29.2,23.7c-3.7-0.1-5.5-0.3-8.1-1
c-8.7-2.4-15.8-8.1-19.8-16.1c-3.3-6.6-3.2-5.6-3.1-46.2l0.1-36.4l1.3-3.4c1.8-4.8,3.9-8.2,7.4-11.7c3.6-3.6,6.9-5.7,11.7-7.4
c3.1-1.1,4-1.2,10-1.2c5.6,0,7,0.2,9.6,1.1C1673.1,817.3,1679.4,822.7,1682.8,829.7z"/>
<path fill="#DD2416" d="M1454.9,491.1c-0.1,0.2-30.8,12.6-68.2,27.6c-54.1,21.7-68.1,27.4-68.4,28.2c-0.3,0.5-7.7,32.8-16.6,71.7
c-8.9,39-16.3,70.9-16.4,71c-0.2,0.1-0.5-0.1-0.9-0.5s-21.6-25.8-47.2-56.5s-46.9-55.9-47.3-56s-33.4,2.8-73.3,6.5
s-72.6,6.6-72.8,6.4c-0.2-0.2,17.2-28.2,38.7-62.4c21.4-34.2,39-62.3,39-62.6c0-0.2-13.1-30.8-29-67.8
c-15.9-36.9-28.8-67.2-28.8-67.5c0.1-0.1,32.3,8,71.5,17.9c50.1,12.7,71.5,18,72.1,17.7c0.8-0.4,26.1-23.1,52.4-46.9
c24.8-22.5,50.5-45.8,57.2-52c1.6,1.3,4.2,44.3,6.6,77.7c4.2,66.8,4.5,71.1,5.4,71.8c0.5,0.4,29.1,17.5,63.6,38
C1426.8,474,1454.9,490.8,1454.9,491.1z"/>
<path d="M1350.9,1219.1c6.9,13.9,9.2,22.6,8.8,33.6c-0.4,10.4-3.3,18.9-9.5,28.4c-2.9,4.4-10.2,12-14,14.5c-2.9,1.9-2.8,1.7-1.5,9.6
c2.2,13.4,3.4,33.7,2.4,41.3c-1.1,8.4-3.5,15.2-7.7,22.1c-8.9,14.7-25.1,25.1-41.3,26.7c-2.4,0.2-3.5,0.5-3.8,1.1
c-0.2,0.4-1.4,3.4-2.6,6.7c-6,16.5-15.4,33.2-26.4,47c-6.1,7.6-18.8,20.5-133.7,135l-122.1,121.7l-124.8-124.4
c-98.6-98.6-125.7-126-129.3-130.6c-12.8-16.1-21.1-30.8-27.9-49.3l-2.4-6.5l-4.4-0.6c-21.6-2.9-39.3-17.7-46-38.4
c-2.2-7-2.7-11.4-2.4-23.4c0.3-11.2,0.9-18.4,2.7-29.1c0.5-3.3,0.9-6.3,0.7-6.6c-0.1-0.4-1.5-1.5-3-2.5
c-14.3-9.7-23.1-27.1-23.2-45.6c0-8,1.5-14.7,5.6-24.1c13.3-30.7,44.5-67.3,80.8-94.7c17.9-13.5,37.4-23.4,51.3-26
c6.1-1.2,16.1-0.7,22.4,0.9c12.4,3.3,23.5,10.7,30.7,20.6c3.2,4.4,2.9,4.3,8.5,3.2c12.5-2.4,36-3.7,44.4-2.6
c18.8,2.7,34.3,14.1,42.8,31.5c2.3,4.6,4.3,11.4,4.9,15.9c0.7,5.7,0.1,5,6.4,7.2c21.2,7.4,40.6,18.9,57.4,34.2
c2.5,2.3,4.8,4.1,5.1,4.1s2.6-1.9,5.1-4.2c16.5-15.2,37.6-27.7,58-34.3c2.2-0.7,4.2-1.5,4.6-1.9s0.9-2.7,1.3-5.4
c1.8-12.2,7.1-22.7,15.9-31.4c11.1-11,24.1-16.2,40.5-16.2c8.6,0,20.2,0.9,29.2,2.2c13.2,2,11.7,2.1,13.8-1.1
c7.5-11.3,21.9-20.6,36.1-23.1c5.1-0.9,14.3-0.8,19.1,0.2c21.8,4.7,51.4,23.6,78.9,50.5C1324.7,1177.2,1340.1,1197.4,1350.9,1219.1z
M1309.2,1260.5c5.9-2.8,8.1-9.4,5.4-16.4c-1.6-4.2-7-14-11.5-20.7c-12.4-18.6-32.2-39.3-52-54.3c-11.3-8.6-29.4-19.6-34.2-20.9
c-7.9-2.1-16,5.5-14.7,13.8c0.7,4.5,1.6,5.3,19.7,17.5c9.2,6.2,18.7,12.8,21.1,14.7c18.1,14.5,30.9,29.1,42.2,48
c10.6,17.7,12.6,19.7,19.5,19.3C1306.2,1261.5,1308.2,1261,1309.2,1260.5z M1292.9,1343c0.7-2.3,0.7-3.6,0.2-11.9
c-1.1-18.4-4.3-34.1-10.2-49.9c-19.2-51.1-61-89.8-112.9-104.7c-13.4-3.9-25.8-5.8-39.9-6.2c-7.6-0.2-9.4-0.1-10.9,0.5
c-6.7,2.8-9.5,10.5-6.1,16.7c2.6,4.8,5.1,5.9,14.4,6.3c23.3,1,41.8,5.9,62.2,16.3c34.3,17.6,61,48.9,72.9,85.7
c4.3,13.1,6.3,24.6,6.9,39.2c0.3,6.4,0.4,7.5,1.5,9.7c2.9,6.3,10.5,8.9,16.3,5.5C1290,1348.6,1292,1346,1292.9,1343z M1246.7,1361.4
c1.1-7.1,1.4-24.1,0.5-32.1c-2.1-17.8-8.3-36-17.8-51.7c-19.7-32.6-51.5-54.2-89.4-60.7c-7.4-1.3-24.7-1.7-33.5-0.9
c-19.8,1.8-38.2,8.5-55.9,20.3c-10.6,7-15.9,11.6-33.9,29.5l-17.1,16.9l-12.6-12.6c-20.9-21-27.2-26.5-39.4-34.6
c-16.5-10.9-35.8-17.8-54.5-19.5c-8-0.7-25.7-0.4-32.3,0.7c-35.2,5.5-65.6,24.1-85.9,52.5c-11.8,16.4-19.6,36.3-22.8,57.7
c-1,7-1.2,25.3-0.2,32c3.4,24.4,12.6,46,27.6,64.9c2.7,3.4,37.8,38.9,111.8,112.9c59.4,59.4,108.1,108,108.4,108
s49.1-48.9,108.7-108.7c73.6-73.9,109.4-110.1,111.8-113.1C1234.5,1404.5,1242.9,1384.9,1246.7,1361.4z M887.7,1182
c0-3.5-0.7-5.4-3-8c-3-3.3-4.6-3.8-12.8-3.8c-47.5,0-97,24.4-128.3,63.3c-23.5,29.1-37,66.3-37.3,102c-0.1,8.1-0.1,8.2,1.2,10.4
c3.2,5.3,9.9,7.4,15.1,4.7c2.4-1.2,4.6-3.6,5.7-6.2c0.7-1.6,1-3.1,1-6.5c0-13.1,2.5-28.3,6.9-41.8c12.2-38,38.7-69.1,73.9-86.7
c19.4-9.7,36.9-14.3,58.9-15.4c10.7-0.5,12.5-1,15.2-3.6C886.6,1188,887.7,1185.5,887.7,1182z M796.3,1164.3
c2.9-6.2-1.1-14.4-7.9-16.4c-4.3-1.3-7.4-0.3-18.1,5.9c-27.2,15.7-57.9,44.4-74.9,70.1c-4.6,7-11.4,20.4-11.9,23.4
c-1.4,9,6.4,16.3,14.8,13.9c3.7-1,8.9-7.3,14.7-17.7c7-12.6,15.1-23,27.1-35.1s21.5-19.4,42.8-33.1
C792.6,1169,795,1167.1,796.3,1164.3z"/>
<path fill="#DD2416" d="M917.5,527.1c21.5,34.2,38.9,62.2,38.7,62.4s-32.9-2.7-72.8-6.4c-39.9-3.7-72.9-6.6-73.3-6.5
c-0.4,0.1-21.7,25.3-47.3,56s-46.8,56.1-47.2,56.5s-0.7,0.6-0.9,0.5c-0.1-0.1-7.5-32-16.4-71c-8.9-38.9-16.3-71.2-16.6-71.7
c-0.3-0.8-14.3-6.5-68.4-28.2c-37.4-15-68.1-27.4-68.2-27.6c0-0.3,28.1-17.1,62.4-37.7c34.5-20.5,63.1-37.6,63.6-38
c0.9-0.7,1.2-5,5.4-71.8c2.4-33.4,5-76.4,6.6-77.7c6.7,6.2,32.4,29.5,57.2,52c26.3,23.8,51.6,46.5,52.4,46.9c0.6,0.3,22-5,72.1-17.7
c39.2-9.9,71.4-18,71.5-17.9c0,0.3-12.9,30.6-28.8,67.5c-15.9,37-29,67.6-29,67.8C878.5,464.8,896.1,492.9,917.5,527.1z"/>
<path d="M500,249.3c0.1,31.9,0,36.6-0.6,39.6c-2.5,11.4-12.2,20.9-23.7,23.2c-3.9,0.8-4.4,0.8-9.6,0.2c-10.2-1.1-19.6-7.5-23.9-16.3
c-3.5-7.1-3.3-5.3-3.3-45.3s-0.1-38.3,3.4-45.3c5.5-11.1,18.3-17.9,30.8-16.3c11.7,1.5,20.8,8.8,25.3,20.2l1.5,3.8L500,249.3z"/>
<path d="M247.1,830.9c3.1,6.4,3.1,6.9,2.9,46c-0.1,32.3-0.2,35.2-1,37.5c-1.6,5-4.1,9-8.1,13.2c-6.1,6.4-12.7,9.3-20.9,9.2
c-2-0.1-5.1-0.5-6.9-1c-4.3-1.1-7.2-2.4-10.8-4.9c-4.1-2.9-6.9-6.3-9.4-11.2c-3.5-7-3.5-6.9-3.5-44.4s0-37.1,3.6-44.5
c4-8.3,12.3-15,21.2-17C227.5,810.7,240.8,817.7,247.1,830.9z"/>
<path d="M249.1,213c1.1,4.2,1.1,72,0,76.2c-2.6,10.3-11.8,19.8-21.7,22.4c-3.6,1-11.7,0.9-15.2-0.1c-9.9-2.9-18-10.7-21.3-20.8
l-1.1-3.3l-0.1-34.6c-0.1-30.1,0-35,0.6-38.3c2.4-12.3,12.1-22,24.2-24.3c4.6-0.9,6.9-0.9,11.4,0C236.7,192.4,246.3,201.8,249.1,213
z"/>
</svg>
