<?xml version="1.0" standalone="no"?>
<!DOCTYPE svg PUBLIC "-//W3C//DTD SVG 20010904//EN"
 "http://www.w3.org/TR/2001/REC-SVG-20010904/DTD/svg10.dtd">
<svg version="1.0" xmlns="http://www.w3.org/2000/svg"
 width="700.000000pt" height="700.000000pt" viewBox="0 0 700.000000 700.000000"
 preserveAspectRatio="xMidYMid meet">
<metadata>
Created by potrace 1.14, written by Peter Selinger 2001-2017
</metadata>
<g transform="translate(0.000000,700.000000) scale(0.100000,-0.100000)"
fill="#000000" stroke="none">
<path d="M591 6970 c-276 -67 -503 -299 -565 -577 -14 -65 -16 -316 -16 -2666
0 -2255 2 -2606 15 -2680 44 -253 163 -484 345 -667 184 -186 421 -310 677
-355 74 -13 400 -15 2453 -15 2601 0 2442 -4 2632 60 330 111 592 344 742 661
52 109 90 234 105 343 8 54 11 876 11 2659 0 2795 3 2638 -53 2777 -75 185
-215 330 -399 414 -155 71 94 66 -3045 65 -2692 0 -2832 -1 -2902 -19z m269
-426 c101 -30 172 -95 214 -198 19 -45 21 -71 21 -226 0 -172 -1 -176 -29
-237 -68 -148 -223 -226 -372 -187 -107 28 -179 88 -227 192 -20 43 -22 63
-22 232 0 179 1 187 26 241 74 157 230 230 389 183z m915 -13 c62 -27 129 -91
163 -156 25 -47 27 -60 30 -202 l4 -152 -74 -98 c-40 -54 -90 -126 -111 -160
-42 -68 -58 -76 -154 -75 -89 1 -150 28 -219 96 -81 81 -95 123 -101 293 -11
282 48 400 235 470 53 19 165 12 227 -16z m635 -56 c0 -47 -3 -85 -8 -85 -4 0
-49 -31 -100 -70 -51 -38 -98 -72 -103 -75 -5 -4 -9 57 -9 154 l0 161 110 0
110 0 0 -85z m2201 57 c59 -25 109 -70 148 -130 30 -47 60 -146 48 -158 -3 -3
-25 9 -49 29 -52 42 -265 193 -332 236 -48 30 -48 33 -1 45 38 9 141 -3 186
-22z m639 -399 c0 -240 -4 -423 -9 -418 -4 6 -32 46 -61 90 -29 44 -75 108
-102 141 l-48 62 0 276 0 276 110 0 110 0 0 -427z m435 405 c3 -13 4 -210 3
-438 l-3 -415 -107 -3 -108 -3 0 441 0 440 105 0 c100 0 105 -1 110 -22z m685
-12 c74 -37 123 -86 157 -160 28 -60 28 -64 28 -246 0 -178 -1 -187 -26 -240
-31 -67 -94 -131 -157 -162 -63 -31 -180 -37 -251 -13 -72 24 -150 98 -187
177 -28 62 -29 66 -29 233 0 109 5 185 13 212 16 53 68 128 115 166 89 72 231
86 337 33z m-2640 -77 c690 -77 1295 -612 1474 -1303 85 -327 71 -698 -40
-1017 -68 -197 -183 -402 -311 -554 l-59 -70 -359 -3 -360 -2 40 31 c216 172
365 445 382 702 l6 87 -1008 0 -1008 0 7 -72 c16 -166 73 -332 160 -469 27
-41 94 -119 152 -176 l104 -103 -353 0 -353 0 -56 68 c-187 228 -315 494 -380
792 -20 92 -22 133 -22 340 0 218 2 244 27 361 35 166 74 276 153 434 89 179
175 296 329 450 158 158 276 243 460 334 324 161 633 212 1015 170z m-3070
-1419 l0 -440 -110 0 -110 0 0 440 0 440 110 0 110 0 0 -440z m440 0 l0 -440
-110 0 -110 0 0 440 0 440 110 0 110 0 0 -440z m530 437 c0 -2 -14 -43 -30
-93 -63 -185 -110 -420 -110 -551 0 -83 -11 -183 -21 -183 -20 0 -103 97 -127
148 -26 55 -27 62 -27 242 0 179 1 187 26 241 44 94 130 165 226 188 42 10 63
13 63 8z m3867 -34 c65 -30 145 -116 168 -180 23 -61 32 -314 16 -395 -16 -73
-65 -154 -121 -196 l-45 -35 -2 74 c-3 104 -21 278 -39 383 -12 70 -81 302
-111 374 -8 19 71 5 134 -25z m623 -403 l0 -440 -110 0 -110 0 0 440 0 440
110 0 110 0 0 -440z m440 0 l0 -440 -110 0 -110 0 0 440 0 440 110 0 110 0 0
-440z m-5645 -692 c58 -30 114 -86 144 -142 34 -65 44 -139 39 -296 -4 -130
-7 -151 -30 -201 -35 -76 -88 -133 -156 -166 -76 -37 -201 -40 -274 -6 -66 30
-133 96 -165 162 -28 55 -28 59 -28 246 0 184 1 192 26 246 39 83 116 150 209
180 14 5 61 7 105 5 62 -2 91 -8 130 -28z m600 10 c3 -13 9 -43 15 -68 11 -50
14 -659 4 -734 l-7 -46 -108 0 -109 0 0 435 0 435 100 0 c95 0 100 -1 105 -22z
m4420 -8 c63 -31 124 -91 155 -155 24 -48 25 -58 25 -245 0 -193 0 -196 -28
-251 -36 -75 -107 -140 -183 -169 -166 -62 -363 32 -420 202 -12 39 -15 84
-12 235 3 182 4 190 30 239 34 64 104 127 172 154 73 28 192 24 261 -10z m625
-405 l0 -435 -110 0 -110 0 0 435 0 435 110 0 110 0 0 -435z m-2190 255 c0
-27 -25 -123 -47 -177 l-25 -63 -537 0 c-295 0 -654 -3 -797 -7 l-262 -6 -22
49 c-23 54 -60 195 -53 207 6 11 1743 9 1743 -3z m880 -590 l0 -100 -66 0
c-36 0 -64 4 -62 8 5 14 122 192 125 192 2 0 3 -45 3 -100z m-4590 -755 l0
-435 -110 0 -110 0 0 435 0 435 110 0 110 0 0 -435z m485 418 c-43 -103 -45
-124 -45 -478 0 -239 -3 -346 -11 -351 -18 -11 -122 68 -156 119 -47 70 -53
103 -53 294 0 144 3 181 19 222 34 90 108 162 199 196 50 18 55 18 47 -2z
m4435 -3 c47 -24 84 -71 99 -125 9 -29 11 -341 9 -1150 l-3 -1110 -2185 0
-2185 0 -3 1110 c-2 809 0 1121 9 1150 15 53 52 101 97 125 36 19 73 19 2080
20 2020 0 2043 0 2082 -20z m767 -1 c72 -28 144 -94 180 -168 28 -55 28 -59
28 -246 0 -174 -2 -194 -22 -237 -30 -66 -93 -129 -160 -164 -50 -25 -69 -29
-143 -29 -68 0 -94 4 -131 23 -74 36 -125 87 -161 160 l-33 67 0 180 c0 174 1
182 26 236 45 95 119 162 209 190 51 15 148 9 207 -12z m-5262 -2467 c-10 -10
-86 72 -121 130 -61 100 -77 159 -77 283 0 88 4 122 21 169 31 82 67 142 126
205 l51 53 3 -417 c1 -230 0 -420 -3 -423z m4972 656 c45 -92 56 -141 56 -248
0 -148 -55 -279 -157 -380 l-46 -44 0 429 1 430 57 -62 c32 -34 72 -90 89
-125z m-374 -821 c-13 -71 -53 -126 -118 -160 l-40 -22 -1995 -3 c-1097 -1
-2009 0 -2026 3 -18 3 -58 23 -91 44 -61 39 -84 73 -96 139 l-6 32 2189 0
2189 0 -6 -33z"/>
<path d="M735 6331 c-11 -5 -31 -21 -45 -36 -24 -26 -25 -30 -25 -177 l0 -150
33 -29 c44 -40 102 -41 141 -1 24 23 29 39 35 105 4 42 4 111 0 154 -6 62 -12
81 -33 105 -28 30 -74 43 -106 29z"/>
<path d="M1595 6329 c-51 -29 -55 -44 -55 -207 l0 -154 29 -29 c23 -23 38 -29
71 -29 94 0 110 33 110 219 0 139 0 141 -27 171 -31 35 -94 49 -128 29z"/>
<path d="M6195 6326 c-63 -28 -70 -45 -73 -188 -3 -86 0 -140 9 -159 30 -73
113 -92 171 -40 l33 29 0 151 0 151 -30 29 c-37 37 -71 45 -110 27z"/>
<path d="M2386 6017 c-3 -23 -10 -121 -16 -217 -6 -96 -13 -193 -16 -215 l-5
-41 -215 -128 c-118 -71 -211 -132 -207 -137 4 -4 109 -48 232 -97 122 -50
224 -92 226 -94 1 -2 28 -113 60 -248 31 -135 57 -246 59 -247 1 -1 75 86 164
192 142 169 167 195 191 195 16 0 129 -9 251 -20 123 -11 224 -19 226 -17 2 2
-31 59 -74 128 -43 68 -103 165 -133 214 l-56 90 98 229 c54 127 97 232 94
234 -2 2 -113 -23 -246 -57 l-243 -61 -25 23 c-211 191 -338 304 -347 310 -8
4 -14 -8 -18 -36z"/>
<path d="M4479 5949 c-69 -63 -154 -140 -190 -171 l-65 -57 -242 61 c-134 33
-245 59 -247 56 -3 -2 40 -107 94 -234 l98 -229 -56 -90 c-30 -49 -90 -146
-133 -214 -43 -69 -76 -126 -74 -128 2 -2 106 5 231 17 125 11 237 20 250 20
19 0 60 -43 187 -195 89 -106 163 -193 164 -192 1 1 28 112 59 247 32 135 58
246 60 248 1 1 103 43 226 93 123 50 228 94 232 98 4 4 -89 66 -207 137 l-215
128 -6 41 c-2 22 -10 123 -16 225 -6 102 -14 200 -18 219 l-7 35 -125 -115z"/>
<path d="M711 4134 c-39 -28 -51 -73 -51 -199 0 -133 13 -175 59 -199 38 -20
66 -20 100 0 44 26 53 51 59 159 7 137 -2 191 -38 227 -33 33 -91 38 -129 12z"/>
<path d="M5719 4121 l-29 -29 0 -151 0 -151 29 -32 c25 -28 36 -33 76 -33 40
0 51 5 76 33 l29 32 0 149 0 149 -29 31 c-24 26 -36 31 -76 31 -38 0 -52 -5
-76 -29z"/>
<path d="M4205 3131 c-42 -11 -66 -25 -98 -58 -27 -29 -28 -29 -95 -20 -135
18 -236 -33 -263 -133 -11 -43 -16 -47 -88 -82 -42 -20 -95 -53 -118 -72 l-42
-36 -63 48 c-35 26 -89 58 -120 71 -49 19 -58 27 -63 54 -10 50 -51 105 -94
127 -53 26 -104 33 -178 22 -61 -8 -63 -8 -89 19 -64 67 -161 78 -257 29 -191
-97 -397 -341 -397 -473 0 -53 24 -109 62 -145 24 -21 25 -27 21 -125 -4 -93
-2 -106 19 -142 27 -45 74 -81 130 -95 21 -6 38 -15 38 -21 0 -6 14 -41 32
-77 29 -60 78 -112 495 -532 l463 -465 459 460 c458 459 459 460 501 548 32
67 46 87 62 87 34 0 96 41 125 83 26 38 28 47 28 147 0 103 1 107 29 141 67
79 71 154 15 260 -90 168 -322 366 -449 383 -19 2 -48 1 -65 -3z m-1427 -163
c26 -26 11 -48 -62 -98 -94 -63 -159 -127 -215 -213 -46 -70 -74 -85 -102 -51
-34 42 117 234 259 329 68 46 99 54 120 33z m1565 -38 c179 -119 317 -327 225
-338 -23 -3 -33 6 -76 70 -60 87 -105 132 -203 202 -75 53 -90 75 -69 101 20
24 45 17 123 -35z m-1243 -51 c18 -32 -12 -59 -64 -59 -166 0 -346 -120 -426
-284 -27 -54 -44 -106 -51 -156 -13 -89 -20 -104 -46 -108 -39 -6 -48 22 -35
107 15 107 44 184 98 264 105 154 282 254 451 256 53 1 64 -2 73 -20z m1024
-7 c186 -67 337 -229 380 -408 25 -104 28 -160 11 -178 -40 -39 -65 -13 -75
75 -24 210 -162 374 -369 439 -35 11 -83 20 -106 20 -61 0 -94 36 -62 69 18
19 149 9 221 -17z"/>
<path d="M6174 3041 c-17 -11 -36 -34 -43 -52 -16 -47 -14 -252 3 -294 15 -35
59 -65 96 -65 37 0 81 30 96 65 9 23 14 73 14 150 0 133 -13 175 -59 199 -40
21 -69 20 -107 -3z"/>
</g>
</svg>
